<?xml version="1.0" encoding="iso-8859-1"?>
<!-- Generator: Adobe Illustrator 19.0.0, SVG Export Plug-In . SVG Version: 6.00 Build 0)  -->
<svg version="1.1" id="Layer_1" xmlns="http://www.w3.org/2000/svg" xmlns:xlink="http://www.w3.org/1999/xlink" x="0px" y="0px"
	 viewBox="-49 141 512 1030" style="enable-background:new -49 141 512 1030;" xml:space="preserve">
<g id="Calque_2">
</g>
<g>
	<path style="fill:none;stroke:#D7D7D7;stroke-width:20;stroke-miterlimit:10;" d="M449.122,287.349
		c0-71.65-58.086-129.731-129.735-129.731c-46.784,0-87.641,24.847-110.469,61.981c-22.824-37.134-63.699-61.981-110.482-61.981
		c-71.649,0-129.716,58.081-129.716,129.731c0,39.009,17.287,73.905,44.527,97.671L197.079,568.86
		c3.142,3.137,7.398,4.903,11.84,4.903c4.441,0,8.698-1.766,11.84-4.903L404.59,385.019
		C431.835,361.254,449.122,326.357,449.122,287.349L449.122,287.349z M449.122,287.349"/>
</g>
<g>
	<path style="fill:#EA5954;stroke:#EA5954;stroke-width:20;stroke-miterlimit:10;" d="M449.122,722.349
		c0-71.65-58.086-129.731-129.735-129.731c-46.784,0-87.641,24.847-110.469,61.981c-22.824-37.134-63.699-61.981-110.482-61.981
		c-71.649,0-129.716,58.081-129.716,129.731c0,39.008,17.287,73.905,44.527,97.671l183.831,183.841
		c3.142,3.137,7.398,4.903,11.84,4.903c4.441,0,8.698-1.766,11.84-4.903L404.59,820.019
		C431.835,796.254,449.122,761.357,449.122,722.349L449.122,722.349z M449.122,722.349"/>
</g>
</svg>
