<?xml version="1.0" encoding="iso-8859-1"?>
<!-- Generator: Adobe Illustrator 19.0.0, SVG Export Plug-In . SVG Version: 6.00 Build 0)  -->
<svg version="1.1" id="Layer_1" xmlns="http://www.w3.org/2000/svg" xmlns:xlink="http://www.w3.org/1999/xlink" x="0px" y="0px"
	 viewBox="-49 141 512 1030" style="enable-background:new -49 141 512 1030;" xml:space="preserve">
<g id="Calque_2">
</g>
<path style="fill:#D7D7D7;" d="M443.891,152.455H-29.893c-5.428,0-9.83,4.401-9.83,9.83v258.988
	c0,27.721,22.552,50.274,50.274,50.274h392.896c27.721,0,50.274-22.553,50.274-50.274V162.284
	C453.721,156.855,449.319,152.455,443.891,152.455z M434.061,421.272c0,16.881-13.734,30.615-30.615,30.615H10.552
	c-16.881,0-30.615-13.735-30.615-30.615V183.729l220.835,180.785c1.812,1.482,4.019,2.223,6.227,2.223
	c2.204,0,4.409-0.739,6.218-2.217l170.88-139.58c4.204-3.434,4.828-9.626,1.395-13.831c-3.435-4.205-9.626-4.829-13.831-1.394
	L207.006,344.211L-3.217,172.114h437.278V421.272z"/>
<path style="fill:#EA5954;" d="M443.585,487.096H-30.199c-5.428,0-9.83,4.401-9.83,9.83v258.988
	c0,27.721,22.552,50.274,50.274,50.274h392.896c27.721,0,50.274-22.553,50.274-50.274V496.926
	C453.415,491.497,449.013,487.096,443.585,487.096z"/>
<path style="fill:#FFFFFF;" d="M443.585,487.096H-30.199c-5.428,0-9.83,4.401-9.83,9.83v258.988
	c0,27.721,22.552,50.274,50.274,50.274h392.896c27.721,0,50.274-22.553,50.274-50.274V496.926
	C453.415,491.497,449.013,487.096,443.585,487.096z M433.755,755.914c0,16.881-13.734,30.615-30.615,30.615H10.246
	c-16.881,0-30.615-13.735-30.615-30.615V518.371l220.835,180.785c1.812,1.482,4.019,2.223,6.227,2.223
	c2.204,0,4.409-0.739,6.218-2.217l170.88-139.58c4.204-3.434,4.828-9.626,1.395-13.831c-3.435-4.205-9.626-4.829-13.831-1.394
	L206.7,678.853L-3.523,506.755h437.278V755.914z"/>
</svg>
