<?xml version="1.0" encoding="iso-8859-1"?>
<!-- Generator: Adobe Illustrator 19.0.0, SVG Export Plug-In . SVG Version: 6.00 Build 0)  -->
<svg version="1.1" id="Layer_1" xmlns="http://www.w3.org/2000/svg" xmlns:xlink="http://www.w3.org/1999/xlink" x="0px" y="0px"
	 viewBox="-49 141 512 1030" style="enable-background:new -49 141 512 1030;" xml:space="preserve">
<g id="Calque_2">
</g>
<g>
	<path style="fill:#D7D7D7;" d="M215,485.108v-238.88c0-4.423-3.584-8-8-8c-4.416,0-8,3.577-8,8v238.88c0,4.416,3.584,8,8,8
		C211.416,493.108,215,489.524,215,485.108L215,485.108z M215,485.108"/>
	<path style="fill:#D7D7D7;" d="M230.213,514.228c15.615-17.095,36.803-25.761,62.98-25.761c30.525,0,61.203,10.62,88.271,19.995
		c23.619,8.177,45.932,15.901,65.536,15.901c4.416,0,8-3.577,8-8V194.134c0-4.421-3.584-8-8-8l0,0
		c-16.912,0-37.989-7.296-60.303-15.025c-28.26-9.787-60.285-20.875-93.504-20.875c-38.439,0-61.891,16.843-74.792,30.973
		c-4.823,5.287-8.563,10.584-11.401,15.281c-2.833-4.697-6.573-9.995-11.401-15.281c-12.901-14.131-36.348-30.973-74.787-30.973
		c-33.219,0-65.249,11.088-93.509,20.875C4.989,178.838-16.088,186.134-33,186.134c-4.416,0-8,3.579-8,8v322.229
		c0,4.423,3.584,8,8,8c19.604,0,41.917-7.724,65.536-15.905c27.068-9.371,57.745-19.996,88.271-19.996
		c26.177,0,47.365,8.672,62.975,25.767H230.213z M195.599,503.436c-12.905-14.131-36.353-30.975-74.792-30.975
		c-33.219,0-65.244,11.095-93.504,20.876C8.385,499.89-9.645,506.134-25,507.884V201.739c17.588-1.677,37.073-8.428,57.536-15.511
		c27.068-9.371,57.745-19.995,88.271-19.995c61.74,0,77.896,49.025,78.548,51.088c1.031,3.355,4.129,5.651,7.645,5.651
		c3.516,0,6.615-2.291,7.645-5.651c0.157-0.511,16.412-51.088,78.548-51.088c30.525,0,61.203,10.624,88.271,19.995
		c20.463,7.088,39.948,13.833,57.536,15.511v306.145c-15.355-1.751-33.385-7.995-52.303-14.541
		c-28.26-9.787-60.285-20.881-93.504-20.881c-38.444,0-61.891,16.844-74.792,30.975H195.599z M447,186.134"/>
	<path style="fill:#D7D7D7;" d="M447,540.363c-16.912,0-37.989-7.296-60.303-15.02c-28.26-9.787-60.285-20.881-93.504-20.881
		c-36.1,0-58.98,14.86-72.319,28.371h-27.749c-13.339-13.511-36.219-28.371-72.319-28.371c-33.219,0-65.244,11.095-93.504,20.881
		c-22.313,7.724-43.391,15.02-60.303,15.02c-4.416,0-8,3.584-8,8c0,4.423,3.584,8,8,8c19.604,0,41.917-7.724,65.536-15.905
		c27.068-9.371,57.745-19.996,88.271-19.996c26.177,0,47.365,8.672,62.975,25.767c1.516,1.656,3.661,2.604,5.912,2.604h34.613
		c2.251,0,4.391-0.948,5.907-2.604c15.615-17.095,36.797-25.767,62.975-25.767c30.531,0,61.208,10.625,88.276,19.996
		c23.619,8.181,45.932,15.905,65.536,15.905c4.416,0,8-3.577,8-8C455,543.947,451.416,540.363,447,540.363L447,540.363z
		 M447,540.363"/>
</g>
<g>
	<path style="fill:#F6917F;" d="M215,898.608v-238.88c0-4.423-3.584-8-8-8c-4.416,0-8,3.577-8,8v238.88c0,4.416,3.584,8,8,8
		C211.416,906.608,215,903.024,215,898.608L215,898.608z M215,898.608"/>
	<path style="fill:#EA5954;" d="M230.213,927.728c15.615-17.095,36.803-25.761,62.98-25.761c30.525,0,61.203,10.62,88.271,19.995
		c23.619,8.177,45.932,15.901,65.536,15.901c4.416,0,8-3.577,8-8V607.634c0-4.421-3.584-8-8-8l0,0
		c-16.912,0-37.989-7.296-60.303-15.025c-28.26-9.787-60.285-20.875-93.504-20.875c-38.439,0-61.891,16.843-74.792,30.973
		c-4.823,5.287-8.563,10.584-11.401,15.281c-2.833-4.697-6.573-9.995-11.401-15.281c-12.901-14.131-36.348-30.973-74.787-30.973
		c-33.219,0-65.249,11.088-93.509,20.875C4.989,592.338-16.088,599.634-33,599.634c-4.416,0-8,3.579-8,8v322.229
		c0,4.423,3.584,8,8,8c19.604,0,41.917-7.724,65.536-15.905c27.068-9.371,57.745-19.996,88.271-19.996
		c26.177,0,47.365,8.672,62.975,25.767H230.213z M447,599.634"/>
	<path style="fill:#F6917F;" d="M447,953.863c-16.912,0-37.989-7.296-60.303-15.02c-28.26-9.787-60.285-20.881-93.504-20.881
		c-36.1,0-58.98,14.86-72.319,28.371h-27.749c-13.339-13.511-36.219-28.371-72.319-28.371c-33.219,0-65.244,11.095-93.504,20.881
		c-22.313,7.724-43.391,15.02-60.303,15.02c-4.416,0-8,3.584-8,8c0,4.423,3.584,8,8,8c19.604,0,41.917-7.724,65.536-15.905
		c27.068-9.371,57.745-19.996,88.271-19.996c26.177,0,47.365,8.672,62.975,25.767c1.516,1.656,3.661,2.604,5.912,2.604h34.613
		c2.251,0,4.391-0.948,5.907-2.604c15.615-17.095,36.797-25.767,62.975-25.767c30.531,0,61.208,10.625,88.276,19.996
		c23.619,8.181,45.932,15.905,65.536,15.905c4.416,0,8-3.577,8-8C455,957.447,451.416,953.863,447,953.863L447,953.863z
		 M447,953.863"/>
</g>
<g>
	<path style="fill:#FFFFFF;" d="M215,898.608v-238.88c0-4.423-3.584-8-8-8c-4.416,0-8,3.577-8,8v238.88c0,4.416,3.584,8,8,8
		C211.416,906.608,215,903.024,215,898.608L215,898.608z M215,898.608"/>
	<path style="fill:#FFFFFF;" d="M230.213,927.728c15.615-17.095,36.803-25.761,62.98-25.761c30.525,0,61.203,10.62,88.271,19.995
		c23.619,8.177,45.932,15.901,65.536,15.901c4.416,0,8-3.577,8-8V607.634c0-4.421-3.584-8-8-8l0,0
		c-16.912,0-37.989-7.296-60.303-15.025c-28.26-9.787-60.285-20.875-93.504-20.875c-38.439,0-61.891,16.843-74.792,30.973
		c-4.823,5.287-8.563,10.584-11.401,15.281c-2.833-4.697-6.573-9.995-11.401-15.281c-12.901-14.131-36.348-30.973-74.787-30.973
		c-33.219,0-65.249,11.088-93.509,20.875C4.989,592.338-16.088,599.634-33,599.634c-4.416,0-8,3.579-8,8v322.229
		c0,4.423,3.584,8,8,8c19.604,0,41.917-7.724,65.536-15.905c27.068-9.371,57.745-19.996,88.271-19.996
		c26.177,0,47.365,8.672,62.975,25.767H230.213z M195.599,916.936c-12.905-14.131-36.353-30.975-74.792-30.975
		c-33.219,0-65.244,11.095-93.504,20.876C8.385,913.39-9.645,919.634-25,921.384V615.239c17.588-1.677,37.073-8.428,57.536-15.511
		c27.068-9.371,57.745-19.995,88.271-19.995c61.74,0,77.896,49.025,78.548,51.088c1.031,3.355,4.129,5.651,7.645,5.651
		c3.516,0,6.615-2.291,7.645-5.651c0.157-0.511,16.412-51.088,78.548-51.088c30.525,0,61.203,10.624,88.271,19.995
		c20.463,7.088,39.948,13.833,57.536,15.511v306.145c-15.355-1.751-33.385-7.995-52.303-14.541
		c-28.26-9.787-60.285-20.881-93.504-20.881c-38.444,0-61.891,16.844-74.792,30.975H195.599z M447,599.634"/>
	<path style="fill:#FFFFFF;" d="M447,953.863c-16.912,0-37.989-7.296-60.303-15.02c-28.26-9.787-60.285-20.881-93.504-20.881
		c-36.1,0-58.98,14.86-72.319,28.371h-27.749c-13.339-13.511-36.219-28.371-72.319-28.371c-33.219,0-65.244,11.095-93.504,20.881
		c-22.313,7.724-43.391,15.02-60.303,15.02c-4.416,0-8,3.584-8,8c0,4.423,3.584,8,8,8c19.604,0,41.917-7.724,65.536-15.905
		c27.068-9.371,57.745-19.996,88.271-19.996c26.177,0,47.365,8.672,62.975,25.767c1.516,1.656,3.661,2.604,5.912,2.604h34.613
		c2.251,0,4.391-0.948,5.907-2.604c15.615-17.095,36.797-25.767,62.975-25.767c30.531,0,61.208,10.625,88.276,19.996
		c23.619,8.181,45.932,15.905,65.536,15.905c4.416,0,8-3.577,8-8C455,957.447,451.416,953.863,447,953.863L447,953.863z
		 M447,953.863"/>
</g>
</svg>
