<?xml version="1.0" encoding="utf-8"?>
<!-- Generator: Adobe Illustrator 19.0.0, SVG Export Plug-In . SVG Version: 6.00 Build 0)  -->
<svg version="1.1" xmlns="http://www.w3.org/2000/svg" xmlns:xlink="http://www.w3.org/1999/xlink" x="0px" y="0px"
	 viewBox="-88.6 340.8 128 224.3" style="enable-background:new -88.6 340.8 128 224.3;" xml:space="preserve">
<style type="text/css">
	.st0{display:none;}
	.st1{display:inline;fill:#2E2E2E;}
	.st2{display:inline;fill:#E9E9EA;stroke:#231F20;stroke-miterlimit:10;}
	.st3{display:inline;}
	.st4{fill:#8C959D;}
	.st5{fill:none;stroke:#D7D7D7;stroke-miterlimit:10;}
	.st6{fill-rule:evenodd;clip-rule:evenodd;fill:none;stroke:#D7D7D7;stroke-miterlimit:10;}
	.st7{fill-rule:evenodd;clip-rule:evenodd;fill:#D7D7D7;}
	.st8{fill:#D7D7D7;}
	.st9{fill:#EA5954;stroke:#EA5954;stroke-miterlimit:10;}
	.st10{fill-rule:evenodd;clip-rule:evenodd;fill:#EA5954;stroke:#EA5954;stroke-miterlimit:10;}
	.st11{fill-rule:evenodd;clip-rule:evenodd;fill:#FFFFFF;}
	.st12{fill:#EA5954;}
	.st13{fill:#FFFFFF;}
</style>
<g id="Calque_2" class="st0">
	<rect x="-88.6" y="340.8" class="st1" width="32" height="26"/>
	<rect x="-56.6" y="340.8" class="st1" width="32" height="26"/>
	<rect x="-24.6" y="340.8" class="st1" width="32" height="26"/>
	<rect x="7.4" y="340.8" class="st1" width="32" height="26"/>
	<rect x="-88.6" y="366.7" class="st1" width="32" height="26"/>
	<rect x="-56.6" y="366.7" class="st1" width="32" height="26"/>
	<rect x="-24.6" y="366.7" class="st1" width="32" height="26"/>
	<rect x="7.4" y="366.7" class="st1" width="32" height="26"/>
</g>
<g id="Calque_1">
	<g id="BACKGROUND" class="st0">
		<rect x="-322.7" y="277.6" class="st2" width="800" height="800"/>
		<g class="st3">
			<g>
				<path class="st4" d="M-36.6,1051.9v-0.3c-0.3,0.4-0.7,0.7-1,1s-0.7,0.4-1.1,0.6c-0.4,0.1-0.8,0.2-1.3,0.2
					c-0.6,0-1.2-0.1-1.7-0.4s-1-0.6-1.4-1.1s-0.7-1.1-0.9-1.7c-0.2-0.7-0.3-1.4-0.3-2.1c0-1.6,0.4-2.9,1.2-3.8
					c0.8-0.9,1.8-1.4,3.1-1.4c0.7,0,1.4,0.1,1.9,0.4c0.5,0.3,1,0.7,1.5,1.2v-3.8c0-0.5,0.1-0.9,0.3-1.2s0.5-0.4,0.9-0.4
					s0.7,0.1,0.9,0.4s0.3,0.6,0.3,1.1v11.4c0,0.5-0.1,0.9-0.3,1.1c-0.2,0.2-0.5,0.4-0.9,0.4s-0.6-0.1-0.9-0.4
					C-36.5,1052.8-36.6,1052.4-36.6,1051.9z M-41.7,1048.1c0,0.7,0.1,1.3,0.3,1.8s0.5,0.9,0.9,1.1c0.4,0.3,0.8,0.4,1.2,0.4
					c0.5,0,0.9-0.1,1.2-0.4c0.4-0.2,0.7-0.6,0.9-1.1s0.3-1.1,0.3-1.8s-0.1-1.3-0.3-1.8s-0.5-0.9-0.9-1.1c-0.4-0.3-0.8-0.4-1.3-0.4
					s-0.9,0.1-1.3,0.4c-0.4,0.3-0.7,0.7-0.9,1.2C-41.6,1046.9-41.7,1047.4-41.7,1048.1z"/>
				<path class="st4" d="M-25.2,1048.8h-5.1c0,0.6,0.1,1.1,0.4,1.6c0.2,0.5,0.5,0.8,0.9,1c0.4,0.2,0.8,0.3,1.3,0.3
					c0.3,0,0.6,0,0.9-0.1c0.3-0.1,0.5-0.2,0.7-0.3c0.2-0.2,0.5-0.3,0.7-0.5c0.2-0.2,0.5-0.4,0.8-0.7c0.1-0.1,0.3-0.2,0.6-0.2
					s0.5,0.1,0.6,0.2c0.2,0.1,0.2,0.4,0.2,0.6s-0.1,0.5-0.3,0.8c-0.2,0.3-0.5,0.6-0.8,0.9c-0.4,0.3-0.8,0.5-1.4,0.7
					c-0.6,0.2-1.2,0.3-1.9,0.3c-1.7,0-3-0.5-3.9-1.4c-0.9-0.9-1.4-2.2-1.4-3.9c0-0.8,0.1-1.5,0.3-2.1c0.2-0.7,0.6-1.2,1-1.7
					s1-0.8,1.6-1.1s1.3-0.4,2.1-0.4c1,0,1.9,0.2,2.6,0.6c0.7,0.4,1.3,1,1.6,1.7c0.4,0.7,0.5,1.4,0.5,2.1s-0.2,1.1-0.6,1.3
					C-24,1048.7-24.5,1048.8-25.2,1048.8z M-30.3,1047.3h4.7c-0.1-0.9-0.3-1.6-0.7-2c-0.4-0.4-1-0.7-1.6-0.7s-1.2,0.2-1.6,0.7
					C-29.9,1045.8-30.2,1046.4-30.3,1047.3z"/>
				<path class="st4" d="M-13.4,1050c0,0.7-0.2,1.3-0.5,1.8s-0.9,0.9-1.5,1.2c-0.7,0.3-1.5,0.4-2.5,0.4c-0.9,0-1.7-0.1-2.4-0.4
					s-1.2-0.6-1.5-1.1c-0.3-0.4-0.5-0.9-0.5-1.3c0-0.3,0.1-0.5,0.3-0.7s0.5-0.3,0.8-0.3s0.5,0.1,0.6,0.2c0.1,0.1,0.3,0.3,0.4,0.6
					c0.3,0.5,0.6,0.8,1,1s0.9,0.3,1.5,0.3c0.5,0,0.9-0.1,1.3-0.3c0.3-0.2,0.5-0.5,0.5-0.8c0-0.5-0.2-0.8-0.5-1
					c-0.3-0.2-0.9-0.4-1.7-0.6c-0.9-0.2-1.6-0.5-2.2-0.7c-0.6-0.2-1-0.6-1.3-1s-0.5-0.9-0.5-1.5c0-0.5,0.2-1,0.5-1.5
					s0.8-0.8,1.4-1.1c0.6-0.3,1.3-0.4,2.2-0.4c0.7,0,1.3,0.1,1.8,0.2c0.5,0.1,1,0.3,1.3,0.6c0.4,0.2,0.6,0.5,0.8,0.8
					s0.3,0.6,0.3,0.8c0,0.3-0.1,0.5-0.3,0.7s-0.5,0.3-0.9,0.3c-0.3,0-0.5-0.1-0.7-0.2c-0.2-0.2-0.4-0.4-0.6-0.7
					c-0.2-0.3-0.4-0.5-0.7-0.6c-0.3-0.2-0.6-0.2-1.1-0.2s-0.9,0.1-1.2,0.3c-0.3,0.2-0.5,0.4-0.5,0.7s0.1,0.5,0.3,0.7
					c0.2,0.2,0.5,0.3,0.9,0.4c0.4,0.1,0.9,0.3,1.6,0.4c0.8,0.2,1.5,0.4,2,0.7s0.9,0.6,1.2,1C-13.5,1049.1-13.4,1049.5-13.4,1050z"/>
				<path class="st4" d="M-10.7,1041.7c-0.4,0-0.7-0.1-0.9-0.3c-0.3-0.2-0.4-0.5-0.4-0.9s0.1-0.7,0.4-0.9c0.3-0.2,0.6-0.4,0.9-0.4
					c0.3,0,0.6,0.1,0.9,0.3c0.3,0.2,0.4,0.5,0.4,0.9c0,0.4-0.1,0.7-0.4,0.9C-10.1,1041.5-10.4,1041.7-10.7,1041.7z M-9.5,1044.3v7.5
					c0,0.5-0.1,0.9-0.4,1.2c-0.2,0.3-0.6,0.4-0.9,0.4s-0.7-0.1-0.9-0.4s-0.4-0.7-0.4-1.2v-7.4c0-0.5,0.1-0.9,0.4-1.2
					c0.2-0.3,0.5-0.4,0.9-0.4s0.7,0.1,0.9,0.4C-9.6,1043.5-9.5,1043.9-9.5,1044.3z"/>
				<path class="st4" d="M1.9,1044.8v7.5c0,0.9-0.1,1.6-0.3,2.2c-0.2,0.6-0.5,1.1-0.9,1.5s-0.9,0.7-1.6,0.9
					c-0.7,0.2-1.5,0.3-2.4,0.3s-1.7-0.1-2.4-0.4s-1.2-0.6-1.6-1c-0.4-0.4-0.6-0.8-0.6-1.2c0-0.3,0.1-0.6,0.3-0.8
					c0.2-0.2,0.5-0.3,0.8-0.3c0.4,0,0.7,0.2,1,0.5c0.1,0.2,0.3,0.3,0.4,0.5c0.1,0.2,0.3,0.3,0.5,0.4s0.4,0.2,0.7,0.3
					c0.3,0.1,0.5,0.1,0.9,0.1c0.7,0,1.2-0.1,1.6-0.3c0.4-0.2,0.6-0.4,0.8-0.8c0.1-0.3,0.2-0.7,0.3-1.1c0.1-0.4,0-1,0.1-1.8
					c-0.4,0.6-0.9,1-1.4,1.3c-0.5,0.3-1.1,0.4-1.9,0.4c-0.9,0-1.6-0.2-2.3-0.7c-0.6-0.4-1.1-1.1-1.5-1.9c-0.3-0.8-0.5-1.7-0.5-2.8
					c0-0.8,0.1-1.5,0.3-2.1c0.2-0.6,0.5-1.2,0.9-1.6c0.4-0.4,0.8-0.8,1.4-1c0.5-0.2,1.1-0.3,1.7-0.3c0.7,0,1.4,0.1,1.9,0.4
					c0.5,0.3,1,0.7,1.5,1.3v-0.4c0-0.4,0.1-0.8,0.3-1c0.2-0.2,0.5-0.4,0.9-0.4c0.5,0,0.8,0.2,1,0.5
					C1.8,1043.7,1.9,1044.1,1.9,1044.8z M-5.6,1048c0,1.1,0.2,1.8,0.7,2.4c0.5,0.5,1.1,0.8,1.8,0.8c0.4,0,0.8-0.1,1.2-0.3
					s0.7-0.6,0.9-1c0.2-0.5,0.4-1,0.4-1.7c0-1.1-0.2-1.9-0.7-2.5c-0.5-0.6-1.1-0.9-1.8-0.9s-1.3,0.3-1.8,0.8
					C-5.4,1046.2-5.6,1047-5.6,1048z"/>
				<path class="st4" d="M6,1044.3v0.3c0.5-0.6,1-1,1.5-1.3c0.5-0.3,1.2-0.4,1.9-0.4c0.7,0,1.3,0.1,1.8,0.4c0.5,0.3,0.9,0.7,1.2,1.3
					c0.2,0.3,0.3,0.7,0.3,1c0.1,0.4,0.1,0.8,0.1,1.4v4.8c0,0.5-0.1,0.9-0.4,1.2c-0.2,0.3-0.5,0.4-0.9,0.4s-0.7-0.1-0.9-0.4
					c-0.2-0.3-0.4-0.7-0.4-1.2v-4.3c0-0.9-0.1-1.5-0.4-2c-0.2-0.5-0.7-0.7-1.4-0.7c-0.5,0-0.9,0.1-1.3,0.4s-0.7,0.7-0.8,1.1
					c-0.1,0.4-0.2,1.1-0.2,2.2v3.2c0,0.5-0.1,0.9-0.4,1.2c-0.2,0.3-0.6,0.4-0.9,0.4c-0.4,0-0.7-0.1-0.9-0.4
					c-0.2-0.3-0.4-0.7-0.4-1.2v-7.5c0-0.5,0.1-0.9,0.3-1.1c0.2-0.2,0.5-0.4,0.9-0.4c0.2,0,0.4,0.1,0.6,0.2c0.2,0.1,0.3,0.3,0.4,0.5
					C6,1043.7,6,1044,6,1044.3z"/>
				<path class="st4" d="M21.8,1048.8h-5.1c0,0.6,0.1,1.1,0.4,1.6c0.2,0.5,0.5,0.8,0.9,1c0.4,0.2,0.8,0.3,1.3,0.3
					c0.3,0,0.6,0,0.9-0.1s0.5-0.2,0.7-0.3c0.2-0.2,0.5-0.3,0.7-0.5c0.2-0.2,0.5-0.4,0.8-0.7c0.1-0.1,0.3-0.2,0.6-0.2
					c0.3,0,0.5,0.1,0.6,0.2c0.2,0.1,0.2,0.4,0.2,0.6s-0.1,0.5-0.3,0.8c-0.2,0.3-0.5,0.6-0.8,0.9c-0.4,0.3-0.8,0.5-1.4,0.7
					s-1.2,0.3-1.9,0.3c-1.7,0-3-0.5-3.9-1.4c-0.9-0.9-1.4-2.2-1.4-3.9c0-0.8,0.1-1.5,0.3-2.1c0.2-0.7,0.6-1.2,1-1.7s1-0.8,1.6-1.1
					s1.3-0.4,2.1-0.4c1,0,1.9,0.2,2.6,0.6c0.7,0.4,1.3,1,1.6,1.7c0.4,0.7,0.5,1.4,0.5,2.1s-0.2,1.1-0.6,1.3
					C23,1048.7,22.5,1048.8,21.8,1048.8z M16.7,1047.3h4.7c-0.1-0.9-0.3-1.6-0.7-2c-0.4-0.4-1-0.7-1.6-0.7s-1.2,0.2-1.6,0.7
					S16.8,1046.4,16.7,1047.3z"/>
				<path class="st4" d="M32.4,1051.9v-0.3c-0.3,0.4-0.7,0.7-1,1s-0.7,0.4-1.1,0.6c-0.4,0.1-0.8,0.2-1.3,0.2c-0.6,0-1.2-0.1-1.7-0.4
					s-1-0.6-1.4-1.1s-0.7-1.1-0.9-1.7c-0.2-0.7-0.3-1.4-0.3-2.1c0-1.6,0.4-2.9,1.2-3.8c0.8-0.9,1.8-1.4,3.1-1.4
					c0.7,0,1.4,0.1,1.9,0.4c0.5,0.3,1,0.7,1.5,1.2v-3.8c0-0.5,0.1-0.9,0.3-1.2c0.2-0.3,0.5-0.4,0.9-0.4s0.7,0.1,0.9,0.4
					c0.2,0.3,0.3,0.6,0.3,1.1v11.4c0,0.5-0.1,0.9-0.3,1.1c-0.2,0.2-0.5,0.4-0.9,0.4s-0.6-0.1-0.9-0.4
					C32.5,1052.8,32.4,1052.4,32.4,1051.9z M27.3,1048.1c0,0.7,0.1,1.3,0.3,1.8c0.2,0.5,0.5,0.9,0.9,1.1c0.4,0.3,0.8,0.4,1.2,0.4
					c0.5,0,0.9-0.1,1.2-0.4c0.4-0.2,0.7-0.6,0.9-1.1c0.2-0.5,0.3-1.1,0.3-1.8s-0.1-1.3-0.3-1.8c-0.2-0.5-0.5-0.9-0.9-1.1
					c-0.4-0.3-0.8-0.4-1.3-0.4s-0.9,0.1-1.3,0.4s-0.7,0.7-0.9,1.2C27.4,1046.9,27.3,1047.4,27.3,1048.1z"/>
				<path class="st4" d="M43,1040.5v4c0.5-0.5,1-0.9,1.5-1.2c0.5-0.3,1.1-0.4,1.9-0.4c0.9,0,1.6,0.2,2.3,0.6c0.6,0.4,1.2,1,1.5,1.8
					c0.4,0.8,0.5,1.7,0.5,2.8c0,0.8-0.1,1.5-0.3,2.2c-0.2,0.7-0.5,1.2-0.9,1.7s-0.8,0.9-1.4,1.1c-0.5,0.3-1.1,0.4-1.8,0.4
					c-0.4,0-0.8,0-1.1-0.1c-0.4-0.1-0.7-0.2-0.9-0.4c-0.2-0.2-0.5-0.3-0.6-0.5c-0.2-0.2-0.4-0.4-0.7-0.7v0.3c0,0.5-0.1,0.9-0.4,1.1
					c-0.2,0.3-0.5,0.4-0.9,0.4s-0.7-0.1-0.9-0.4c-0.2-0.3-0.3-0.6-0.3-1.1v-11.3c0-0.5,0.1-0.9,0.3-1.2c0.2-0.3,0.5-0.4,0.9-0.4
					s0.7,0.1,0.9,0.4C42.9,1039.6,43,1040,43,1040.5z M43.1,1048.2c0,1,0.2,1.8,0.7,2.4c0.5,0.6,1.1,0.8,1.9,0.8
					c0.7,0,1.2-0.3,1.7-0.9c0.5-0.6,0.7-1.4,0.7-2.4c0-0.7-0.1-1.3-0.3-1.8c-0.2-0.5-0.5-0.9-0.8-1.1c-0.4-0.3-0.8-0.4-1.3-0.4
					s-0.9,0.1-1.3,0.4s-0.7,0.7-0.9,1.2C43.2,1046.9,43.1,1047.5,43.1,1048.2z"/>
				<path class="st4" d="M54,1053.7l0.2-0.6l-3.2-8c-0.2-0.5-0.3-0.8-0.3-1c0-0.2,0.1-0.4,0.2-0.6s0.3-0.3,0.5-0.5
					c0.2-0.1,0.4-0.2,0.6-0.2c0.4,0,0.7,0.1,0.8,0.4c0.2,0.2,0.4,0.6,0.5,1l2.2,6.4l2.1-5.9c0.2-0.5,0.3-0.9,0.4-1.1
					c0.1-0.3,0.3-0.5,0.4-0.5c0.1-0.1,0.4-0.1,0.6-0.1s0.4,0.1,0.6,0.2c0.2,0.1,0.3,0.2,0.4,0.4c0.1,0.2,0.1,0.4,0.1,0.6
					c0,0.1-0.1,0.3-0.1,0.5c-0.1,0.2-0.1,0.4-0.2,0.7l-3.4,8.9c-0.3,0.8-0.6,1.4-0.9,1.8c-0.3,0.4-0.6,0.8-1.1,1
					c-0.5,0.2-1.1,0.4-1.9,0.4s-1.3-0.1-1.7-0.2c-0.4-0.2-0.6-0.5-0.6-0.9c0-0.3,0.1-0.5,0.3-0.7c0.2-0.2,0.4-0.2,0.8-0.2
					c0.1,0,0.3,0,0.4,0.1c0.2,0,0.3,0.1,0.4,0.1c0.3,0,0.5,0,0.7-0.1s0.3-0.2,0.5-0.5C53.7,1054.5,53.8,1054.1,54,1053.7z"/>
			</g>
			<g>
				<path class="st4" d="M91.6,1043.1h0.6v-0.8c0-0.8,0.1-1.5,0.3-1.9c0.2-0.5,0.6-0.8,1-1c0.5-0.2,1.2-0.3,2-0.3
					c1.5,0,2.3,0.4,2.3,1.1c0,0.2-0.1,0.4-0.2,0.6c-0.2,0.2-0.3,0.3-0.6,0.3c-0.1,0-0.3,0-0.5-0.1c-0.2,0-0.5-0.1-0.6-0.1
					c-0.5,0-0.8,0.1-0.9,0.4c-0.1,0.3-0.2,0.7-0.2,1.2v0.6h0.6c1,0,1.5,0.3,1.5,0.9c0,0.4-0.1,0.7-0.4,0.8c-0.3,0.1-0.6,0.2-1.1,0.2
					h-0.6v6.9c0,0.5-0.1,0.9-0.4,1.2c-0.2,0.3-0.6,0.4-0.9,0.4c-0.4,0-0.7-0.1-0.9-0.4c-0.2-0.3-0.4-0.7-0.4-1.2v-6.9h-0.7
					c-0.4,0-0.7-0.1-0.9-0.3c-0.2-0.2-0.3-0.4-0.3-0.7C90.3,1043.4,90.7,1043.1,91.6,1043.1"/>
				<path class="st4" d="M100.1,1049.7v2.2c0,0.5-0.1,0.9-0.4,1.2c-0.2,0.3-0.6,0.4-0.9,0.4c-0.4,0-0.7-0.1-0.9-0.4
					c-0.2-0.3-0.4-0.7-0.4-1.2v-7.2c0-1.2,0.4-1.7,1.3-1.7c0.4,0,0.7,0.1,0.9,0.4c0.2,0.3,0.3,0.7,0.3,1.2c0.3-0.5,0.6-0.9,0.9-1.2
					s0.8-0.4,1.3-0.4s1.1,0.1,1.6,0.4c0.5,0.3,0.8,0.6,0.8,1.1c0,0.3-0.1,0.6-0.3,0.8c-0.2,0.2-0.5,0.3-0.7,0.3
					c-0.1,0-0.3-0.1-0.7-0.2c-0.4-0.1-0.7-0.2-1-0.2c-0.4,0-0.7,0.1-0.9,0.3c-0.2,0.2-0.4,0.5-0.6,0.9c-0.1,0.4-0.2,0.9-0.3,1.4
					C100.1,1048.2,100.1,1048.9,100.1,1049.7"/>
				<path class="st4" d="M112,1048.8h-5.1c0,0.6,0.1,1.1,0.4,1.6c0.2,0.4,0.5,0.8,0.9,1c0.4,0.2,0.8,0.3,1.3,0.3
					c0.3,0,0.6,0,0.8-0.1c0.3-0.1,0.5-0.2,0.7-0.3c0.2-0.2,0.5-0.3,0.7-0.5c0.2-0.2,0.5-0.4,0.8-0.7c0.1-0.1,0.3-0.2,0.6-0.2
					c0.3,0,0.5,0.1,0.6,0.2c0.2,0.1,0.2,0.4,0.2,0.6s-0.1,0.5-0.3,0.8c-0.2,0.3-0.5,0.6-0.8,0.9c-0.4,0.3-0.8,0.5-1.4,0.7
					s-1.2,0.3-1.9,0.3c-1.7,0-3-0.5-3.9-1.4c-0.9-1-1.4-2.2-1.4-3.9c0-0.8,0.1-1.5,0.3-2.1c0.2-0.7,0.6-1.2,1-1.7s1-0.8,1.6-1.1
					c0.6-0.2,1.3-0.4,2.1-0.4c1,0,1.9,0.2,2.6,0.6c0.7,0.4,1.3,1,1.6,1.7c0.4,0.7,0.5,1.4,0.5,2.1c0,0.6-0.2,1.1-0.6,1.3
					C113.2,1048.7,112.7,1048.8,112,1048.8 M106.9,1047.3h4.7c-0.1-0.9-0.3-1.5-0.7-2c-0.4-0.4-1-0.7-1.6-0.7s-1.2,0.2-1.6,0.7
					C107.2,1045.8,107,1046.4,106.9,1047.3"/>
				<path class="st4" d="M122.8,1048.8h-5.1c0,0.6,0.1,1.1,0.4,1.6c0.2,0.4,0.5,0.8,0.9,1c0.4,0.2,0.8,0.3,1.3,0.3
					c0.3,0,0.6,0,0.8-0.1c0.3-0.1,0.5-0.2,0.8-0.3c0.2-0.2,0.5-0.3,0.7-0.5c0.2-0.2,0.5-0.4,0.8-0.7c0.1-0.1,0.3-0.2,0.6-0.2
					c0.3,0,0.5,0.1,0.7,0.2s0.2,0.4,0.2,0.6s-0.1,0.5-0.3,0.8c-0.2,0.3-0.5,0.6-0.8,0.9c-0.4,0.3-0.8,0.5-1.4,0.7s-1.2,0.3-1.9,0.3
					c-1.7,0-3-0.5-3.9-1.4c-0.9-1-1.4-2.2-1.4-3.9c0-0.8,0.1-1.5,0.3-2.1c0.2-0.7,0.6-1.2,1-1.7s1-0.8,1.6-1.1
					c0.6-0.2,1.4-0.4,2.1-0.4c1,0,1.9,0.2,2.6,0.6c0.7,0.4,1.3,1,1.6,1.7c0.4,0.7,0.5,1.4,0.5,2.1c0,0.6-0.2,1.1-0.6,1.3
					C124,1048.7,123.4,1048.8,122.8,1048.8 M117.7,1047.3h4.7c-0.1-0.9-0.3-1.5-0.7-2c-0.4-0.4-1-0.7-1.6-0.7s-1.2,0.2-1.6,0.7
					C118,1045.8,117.8,1046.4,117.7,1047.3"/>
				<path class="st4" d="M128.4,1044.3v0.3c0.5-0.6,1-1,1.5-1.3c0.5-0.3,1.1-0.4,1.8-0.4c0.8,0,1.5,0.2,2.2,0.6
					c0.7,0.4,1.2,1,1.6,1.8s0.6,1.7,0.6,2.8c0,0.8-0.1,1.5-0.3,2.2c-0.2,0.7-0.5,1.2-0.9,1.7s-0.9,0.8-1.4,1
					c-0.5,0.2-1.1,0.4-1.7,0.4c-0.7,0-1.4-0.1-1.9-0.4s-1-0.7-1.4-1.3v3.9c0,1.1-0.4,1.7-1.2,1.7c-0.5,0-0.8-0.1-1-0.4
					c-0.2-0.3-0.2-0.7-0.2-1.3v-11.2c0-0.5,0.1-0.9,0.3-1.1c0.2-0.2,0.5-0.4,0.9-0.4s0.7,0.1,0.9,0.4
					C128.3,1043.5,128.4,1043.8,128.4,1044.3 M133.5,1048.1c0-0.7-0.1-1.3-0.3-1.8c-0.2-0.5-0.5-0.9-0.9-1.1
					c-0.4-0.3-0.8-0.4-1.2-0.4c-0.7,0-1.3,0.3-1.8,0.8c-0.5,0.6-0.7,1.4-0.7,2.5c0,1,0.2,1.8,0.7,2.4c0.5,0.6,1.1,0.9,1.8,0.9
					c0.4,0,0.8-0.1,1.2-0.4c0.4-0.3,0.7-0.6,0.9-1.1C133.4,1049.4,133.5,1048.8,133.5,1048.1"/>
				<path class="st4" d="M138.7,1041.6c-0.4,0-0.7-0.1-0.9-0.3c-0.3-0.2-0.4-0.5-0.4-0.9c0-0.4,0.1-0.7,0.4-0.9
					c0.3-0.2,0.6-0.4,0.9-0.4s0.6,0.1,0.9,0.3s0.4,0.5,0.4,0.9s-0.1,0.7-0.4,0.9C139.4,1041.5,139.1,1041.6,138.7,1041.6
					 M140,1044.3v7.5c0,0.5-0.1,0.9-0.4,1.2s-0.6,0.4-0.9,0.4c-0.4,0-0.7-0.1-0.9-0.4c-0.2-0.3-0.4-0.7-0.4-1.2v-7.4
					c0-0.5,0.1-0.9,0.4-1.2c0.2-0.3,0.5-0.4,0.9-0.4s0.7,0.1,0.9,0.4C139.9,1043.5,140,1043.9,140,1044.3"/>
				<path class="st4" d="M148.4,1052.2l-2.3-3.8l-1.4,1.3v2.1c0,0.5-0.1,0.9-0.4,1.1c-0.3,0.3-0.6,0.4-0.9,0.4
					c-0.4,0-0.7-0.1-0.9-0.4c-0.2-0.3-0.3-0.7-0.3-1.2v-10.9c0-0.6,0.1-1,0.3-1.3c0.2-0.3,0.5-0.5,1-0.5c0.4,0,0.7,0.1,0.9,0.4
					c0.2,0.3,0.4,0.7,0.4,1.2v6.3l2.9-3.1c0.4-0.4,0.6-0.6,0.8-0.8c0.2-0.1,0.4-0.2,0.7-0.2c0.3,0,0.6,0.1,0.8,0.3
					c0.2,0.2,0.3,0.5,0.3,0.8c0,0.4-0.4,0.9-1.1,1.5l-1.4,1.3l2.7,4.2c0.2,0.3,0.3,0.5,0.4,0.7c0.1,0.2,0.1,0.3,0.1,0.5
					c0,0.4-0.1,0.7-0.3,1c-0.2,0.2-0.5,0.4-0.9,0.4c-0.3,0-0.6-0.1-0.7-0.3C148.9,1053,148.7,1052.7,148.4,1052.2"/>
				<path class="st4" d="M154,1053.4c-0.4,0-0.7-0.1-1-0.4c-0.3-0.2-0.4-0.6-0.4-1.1c0-0.4,0.1-0.7,0.4-1c0.3-0.3,0.6-0.4,1-0.4
					s0.7,0.1,1,0.4s0.4,0.6,0.4,1c0,0.5-0.1,0.8-0.4,1.1S154.4,1053.4,154,1053.4"/>
				<path class="st4" d="M166.9,1050.2c0,0.3-0.1,0.7-0.3,1c-0.2,0.4-0.5,0.7-0.9,1c-0.4,0.3-0.9,0.6-1.5,0.8s-1.3,0.3-2,0.3
					c-1.6,0-2.9-0.5-3.8-1.4c-0.9-0.9-1.3-2.2-1.3-3.8c0-1.1,0.2-2,0.6-2.8c0.4-0.8,1-1.4,1.8-1.9c0.8-0.4,1.7-0.7,2.8-0.7
					c0.7,0,1.3,0.1,1.9,0.3c0.6,0.2,1,0.5,1.4,0.8s0.7,0.6,0.9,1c0.2,0.4,0.3,0.7,0.3,1s-0.1,0.6-0.3,0.8c-0.2,0.2-0.5,0.3-0.8,0.3
					c-0.2,0-0.4-0.1-0.5-0.2c-0.1-0.1-0.3-0.3-0.5-0.5c-0.3-0.5-0.6-0.8-1-1.1c-0.3-0.2-0.8-0.4-1.3-0.4c-0.8,0-1.4,0.3-1.9,0.9
					c-0.5,0.6-0.7,1.4-0.7,2.5c0,0.5,0.1,0.9,0.2,1.3c0.1,0.4,0.3,0.8,0.5,1c0.2,0.3,0.5,0.5,0.8,0.7c0.3,0.2,0.7,0.2,1.1,0.2
					c0.5,0,1-0.1,1.3-0.4c0.4-0.2,0.7-0.6,1-1.1c0.2-0.3,0.3-0.5,0.5-0.7c0.2-0.2,0.4-0.2,0.7-0.2c0.3,0,0.6,0.1,0.8,0.4
					C166.8,1049.7,166.9,1049.9,166.9,1050.2"/>
				<path class="st4" d="M178.1,1048.1c0,0.8-0.1,1.5-0.4,2.1c-0.2,0.7-0.6,1.2-1,1.7c-0.5,0.5-1,0.8-1.6,1.1
					c-0.6,0.2-1.3,0.4-2.1,0.4c-0.8,0-1.5-0.1-2.1-0.4c-0.6-0.2-1.2-0.6-1.6-1.1c-0.5-0.5-0.8-1-1.1-1.7c-0.2-0.6-0.4-1.4-0.4-2.1
					c0-0.8,0.1-1.5,0.4-2.2c0.2-0.7,0.6-1.2,1-1.7c0.5-0.5,1-0.8,1.6-1.1c0.6-0.2,1.3-0.4,2.1-0.4c0.8,0,1.5,0.1,2.1,0.4
					c0.6,0.3,1.2,0.6,1.6,1.1c0.5,0.5,0.8,1,1,1.7C178,1046.6,178.1,1047.3,178.1,1048.1 M175.5,1048.1c0-1.1-0.2-1.9-0.7-2.5
					s-1.1-0.9-1.9-0.9c-0.5,0-1,0.1-1.3,0.4c-0.4,0.3-0.7,0.6-0.9,1.2c-0.2,0.5-0.3,1.1-0.3,1.8s0.1,1.3,0.3,1.8
					c0.2,0.5,0.5,0.9,0.9,1.2s0.8,0.4,1.4,0.4c0.8,0,1.4-0.3,1.9-0.9C175.3,1050,175.5,1049.2,175.5,1048.1"/>
				<path class="st4" d="M188,1048.3v3.4c0,0.5-0.1,1-0.4,1.2c-0.3,0.3-0.6,0.4-1,0.4s-0.7-0.1-1-0.4c-0.2-0.3-0.4-0.7-0.4-1.2v-4.1
					c0-0.7,0-1.2-0.1-1.5c0-0.4-0.2-0.7-0.4-0.9c-0.2-0.2-0.5-0.4-0.9-0.4c-0.9,0-1.4,0.3-1.7,0.9c-0.3,0.6-0.4,1.4-0.4,2.5v3.5
					c0,0.5-0.1,0.9-0.4,1.2c-0.2,0.3-0.6,0.4-1,0.4s-0.7-0.1-1-0.4c-0.3-0.3-0.4-0.7-0.4-1.2v-7.4c0-0.5,0.1-0.9,0.3-1.1
					c0.2-0.3,0.5-0.4,0.9-0.4s0.7,0.1,0.9,0.4c0.2,0.2,0.4,0.6,0.4,1v0.2c0.5-0.5,0.9-0.9,1.4-1.2c0.5-0.3,1.1-0.4,1.7-0.4
					c0.7,0,1.2,0.1,1.7,0.4s0.9,0.7,1.2,1.2c0.4-0.5,0.9-0.9,1.4-1.2c0.5-0.3,1.1-0.4,1.7-0.4c0.7,0,1.3,0.1,1.8,0.4
					s0.9,0.7,1.1,1.2s0.3,1.2,0.3,2.2v5.1c0,0.5-0.1,1-0.4,1.2c-0.2,0.3-0.6,0.4-1,0.4s-0.7-0.1-1-0.4c-0.3-0.3-0.4-0.7-0.4-1.2
					v-4.4c0-0.6,0-1-0.1-1.3c0-0.3-0.2-0.6-0.4-0.8c-0.2-0.2-0.5-0.3-1-0.3c-0.3,0-0.7,0.1-1,0.3c-0.3,0.2-0.5,0.5-0.7,0.8
					C188.1,1046.4,188,1047.2,188,1048.3"/>
			</g>
			<g>
				<path class="st4" d="M67.3,1047.5L67.3,1047.5L67.3,1047.5z"/>
				<path class="st4" d="M67.4,1048.3L67.4,1048.3c0-0.2-0.1-0.5-0.1-0.7C67.3,1047.9,67.4,1048.1,67.4,1048.3z"/>
				<path class="st4" d="M68.3,1050.7L68.3,1050.7L68.3,1050.7z"/>
				<path class="st4" d="M68.2,1050.6c0,0,0-0.1-0.1-0.1C68.2,1050.5,68.2,1050.5,68.2,1050.6z"/>
				<path class="st4" d="M67.7,1049.3c0.1,0.4,0.3,0.8,0.5,1.2C67.9,1050,67.8,1049.6,67.7,1049.3L67.7,1049.3z"/>
				<path class="st4" d="M77.3,1037.6c0.5,0,0.9,0,1.3,0.1l0.1-0.8c0,0-1.2-0.4-2.7-0.2l-0.1-0.4c0.5-0.1,0.8-0.5,0.8-1
					c0-0.6-0.5-1.1-1.1-1.1s-1.1,0.5-1.1,1.1c0,0.5,0.4,0.9,0.8,1l0.1,0.5c-1.6,0.2-2.9,0.9-2.9,0.9l0.2,0.7c1-0.3,1.8-0.5,2.6-0.6
					C76.3,1037.6,76.9,1037.6,77.3,1037.6z"/>
				<path class="st4" d="M68.3,1041.4L68.3,1041.4c0-0.1,0.1-0.1,0.1-0.2l-0.3-0.2l-0.5-0.4c0,0-0.8,0.7-1.4,2l-0.1-0.1
					c-0.2-0.2-0.4-0.3-0.8-0.3l0,0c-0.2,0-0.3-0.1-0.4-0.1c0.1-0.1,0.1-0.3,0.1-0.4c0-0.4-0.3-0.7-0.7-0.7c-0.4,0-0.7,0.3-0.7,0.7
					s0.3,0.7,0.7,0.7c0.1,0,0.1,0,0.2,0c0.2,0.2,0.4,0.3,0.8,0.3c0.2,0,0.3,0,0.4,0.2c0.1,0.1,0.1,0.3,0.2,0.4l0,0
					c-0.4,1.2-0.3,2.7-0.3,2.7h1.1c0-0.5,0.1-1.5,0.4-2.2C67.6,1042.4,68.2,1041.5,68.3,1041.4z"/>
				<path class="st4" d="M86.5,1038.4c-0.4,0-0.7,0.3-0.7,0.7c0,0.1,0,0.1,0,0.2c-0.2,0.2-0.3,0.4-0.3,0.8c0,0.2,0,0.3-0.2,0.4
					c-0.1,0.1-0.2,0.1-0.3,0.1c-0.8-1.1-1.8-1.8-1.8-1.8l-0.8,0.8c0.6,0.5,1.2,1.2,1.7,2c0.4,0.6,0.8,1.3,1.1,2l1-0.5
					c0,0-0.5-1.2-1.1-2.2c0.1,0,0.2-0.1,0.3-0.2c0.2-0.2,0.3-0.4,0.3-0.8c0-0.2,0.1-0.3,0.1-0.4c0.1,0.1,0.3,0.1,0.4,0.1
					c0.4,0,0.7-0.3,0.7-0.7C87.2,1038.7,86.9,1038.4,86.5,1038.4z"/>
				<path class="st4" d="M83.9,1047.7c-1.4,0.7-3.7,1.6-6.8,2c-1.2,0.2-2.4,0.2-3.4,0.2c-1.4,0-2.6-0.1-3.6-0.2
					c-1.1-0.1-1.9-0.3-2.4-0.4c0.1,0.4,0.3,0.8,0.5,1.2l0,0c0,0,0,0.1,0.1,0.1c0,0,0,0.1,0.1,0.1l0,0c0.3,0.6,0.7,1.1,1.1,1.5
					c1.4,1.6,2.9,1.8,2.9,1.8l0,0l0,0c0,0,1.3,0.4,3.3,0.4c1.9,0,3.9-0.4,5.7-1.2c1.3-0.7,2.6-1.7,3.3-2.7c0.5-0.7,0.8-1.5,1-2.3
					c0.1-0.4,0.2-1.1,0.1-1.8C85.4,1046.9,84.7,1047.2,83.9,1047.7z"/>
				<path class="st4" d="M68.7,1041.8c0,0.1-0.7,0.9-1.1,2.3c-0.4,1-0.3,2.4-0.3,2.5l0,0c0,0.3,0,0.7,0.1,1l0,0v0.1
					c0,0.2,0.1,0.5,0.1,0.7c0.7,0.2,4.9,1.2,9.5,0.5c2.9-0.4,5.1-1.3,6.5-1.9c1.1-0.5,1.8-1,2.1-1.2c-0.3-1-1-2.6-1.7-3.6
					c-2-2.9-4.2-3.6-5.3-3.8c-0.4-0.1-0.8-0.1-1.2-0.1c-0.4,0-1,0-1.7,0.1c-0.7,0.1-1.6,0.3-2.5,0.6c-1.3,0.5-2.6,1.2-3.5,2l0,0
					C69.4,1041,69.1,1041.3,68.7,1041.8z M81,1041.1c1,0,1.7,0.8,1.7,1.7c0,1-0.8,1.7-1.7,1.7c-1,0-1.7-0.8-1.7-1.7
					C79.2,1041.9,80,1041.1,81,1041.1z M72.8,1041c1.6,0,2.8,1.3,2.8,2.8c0,1.6-1.3,2.8-2.8,2.8c-1.6,0-2.8-1.3-2.8-2.8
					C69.9,1042.3,71.2,1041,72.8,1041z"/>
			</g>
		</g>
	</g>
	<g>
		<path class="st5" d="M-57.4,345.8c-1.1,0.5-2.2,0.8-3.4,0.9c1.2-0.7,2.2-1.9,2.6-3.3c-1.2,0.7-2.4,1.2-3.8,1.5
			c-1.1-1.2-2.6-1.9-4.4-1.9c-3.3,0-6,2.7-6,6c0,0.5,0.1,0.9,0.2,1.4c-5-0.3-9.4-2.6-12.3-6.3c-0.5,0.9-0.8,1.9-0.8,3
			c0,2.1,1.1,3.9,2.7,5c-1,0-1.9-0.3-2.7-0.7v0.1c0,2.9,2.1,5.3,4.8,5.9c-0.5,0.1-1,0.2-1.6,0.2c-0.4,0-0.8,0-1.1-0.1
			c0.8,2.4,3,4.1,5.6,4.2c-2,1.6-4.6,2.6-7.4,2.6c-0.5,0-1,0-1.4-0.1c2.7,1.7,5.8,2.7,9.2,2.7c11,0,17-9.1,17-17l0-0.8
			C-59.3,348-58.2,347-57.4,345.8L-57.4,345.8z M-57.4,345.8"/>
	</g>
	<path class="st5" d="M-33.5,342.5l-3.2,0c-3.6,0-5.9,2.4-5.9,6v2.8h-3.2c-0.3,0-0.5,0.2-0.5,0.5v4c0,0.3,0.2,0.5,0.5,0.5h3.2v10.1
		c0,0.3,0.2,0.5,0.5,0.5h4.2c0.3,0,0.5-0.2,0.5-0.5v-10.1h3.7c0.3,0,0.5-0.2,0.5-0.5l0-4c0-0.1-0.1-0.3-0.1-0.4
		c-0.1-0.1-0.2-0.1-0.4-0.1h-3.7v-2.3c0-1.1,0.3-1.7,1.7-1.7l2.1,0c0.3,0,0.5-0.2,0.5-0.5V343C-33,342.7-33.2,342.5-33.5,342.5
		L-33.5,342.5z M-33.5,342.5"/>
	<path class="st6" d="M6.3,348.1c-0.3-1.5-1.5-2.6-3-2.7C-0.2,345-3.7,345-7.1,345c-3.5,0-7,0-10.4,0.4c-1.5,0.2-2.7,1.3-3,2.7
		c-0.5,2.1-0.5,4.4-0.5,6.6c0,2.2,0,4.5,0.5,6.6c0.3,1.5,1.5,2.6,3,2.7c3.4,0.4,6.9,0.4,10.4,0.4c3.5,0,7,0,10.4-0.4
		c1.5-0.2,2.7-1.3,3-2.7c0.5-2.1,0.5-4.4,0.5-6.6C6.8,352.5,6.8,350.2,6.3,348.1L6.3,348.1z M-10.7,359"/>
	<g id="BACKGROUND_1_" class="st0">
		<rect x="-322.7" y="303.3" class="st2" width="800" height="800"/>
		<g class="st3">
			<g>
				<path class="st4" d="M-36.6,1077.6v-0.3c-0.3,0.4-0.7,0.7-1,1s-0.7,0.4-1.1,0.6c-0.4,0.1-0.8,0.2-1.3,0.2
					c-0.6,0-1.2-0.1-1.7-0.4s-1-0.6-1.4-1.1s-0.7-1.1-0.9-1.7c-0.2-0.7-0.3-1.4-0.3-2.1c0-1.6,0.4-2.9,1.2-3.8
					c0.8-0.9,1.8-1.4,3.1-1.4c0.7,0,1.4,0.1,1.9,0.4c0.5,0.3,1,0.7,1.5,1.2v-3.8c0-0.5,0.1-0.9,0.3-1.2s0.5-0.4,0.9-0.4
					s0.7,0.1,0.9,0.4s0.3,0.6,0.3,1.1v11.4c0,0.5-0.1,0.9-0.3,1.1c-0.2,0.2-0.5,0.4-0.9,0.4s-0.6-0.1-0.9-0.4
					C-36.5,1078.6-36.6,1078.1-36.6,1077.6z M-41.7,1073.8c0,0.7,0.1,1.3,0.3,1.8s0.5,0.9,0.9,1.1c0.4,0.3,0.8,0.4,1.2,0.4
					c0.5,0,0.9-0.1,1.2-0.4c0.4-0.2,0.7-0.6,0.9-1.1s0.3-1.1,0.3-1.8s-0.1-1.3-0.3-1.8s-0.5-0.9-0.9-1.1c-0.4-0.3-0.8-0.4-1.3-0.4
					s-0.9,0.1-1.3,0.4c-0.4,0.3-0.7,0.7-0.9,1.2C-41.6,1072.6-41.7,1073.1-41.7,1073.8z"/>
				<path class="st4" d="M-25.2,1074.6h-5.1c0,0.6,0.1,1.1,0.4,1.6c0.2,0.5,0.5,0.8,0.9,1c0.4,0.2,0.8,0.3,1.3,0.3
					c0.3,0,0.6,0,0.9-0.1c0.3-0.1,0.5-0.2,0.7-0.3c0.2-0.2,0.5-0.3,0.7-0.5c0.2-0.2,0.5-0.4,0.8-0.7c0.1-0.1,0.3-0.2,0.6-0.2
					s0.5,0.1,0.6,0.2c0.2,0.1,0.2,0.4,0.2,0.6s-0.1,0.5-0.3,0.8c-0.2,0.3-0.5,0.6-0.8,0.9c-0.4,0.3-0.8,0.5-1.4,0.7
					c-0.6,0.2-1.2,0.3-1.9,0.3c-1.7,0-3-0.5-3.9-1.4c-0.9-0.9-1.4-2.2-1.4-3.9c0-0.8,0.1-1.5,0.3-2.1c0.2-0.7,0.6-1.2,1-1.7
					s1-0.8,1.6-1.1s1.3-0.4,2.1-0.4c1,0,1.9,0.2,2.6,0.6c0.7,0.4,1.3,1,1.6,1.7c0.4,0.7,0.5,1.4,0.5,2.1s-0.2,1.1-0.6,1.3
					C-24,1074.4-24.5,1074.6-25.2,1074.6z M-30.3,1073.1h4.7c-0.1-0.9-0.3-1.6-0.7-2c-0.4-0.4-1-0.7-1.6-0.7s-1.2,0.2-1.6,0.7
					C-29.9,1071.6-30.2,1072.1-30.3,1073.1z"/>
				<path class="st4" d="M-13.4,1075.8c0,0.7-0.2,1.3-0.5,1.8s-0.9,0.9-1.5,1.2c-0.7,0.3-1.5,0.4-2.5,0.4c-0.9,0-1.7-0.1-2.4-0.4
					s-1.2-0.6-1.5-1.1c-0.3-0.4-0.5-0.9-0.5-1.3c0-0.3,0.1-0.5,0.3-0.7s0.5-0.3,0.8-0.3s0.5,0.1,0.6,0.2c0.1,0.1,0.3,0.3,0.4,0.6
					c0.3,0.5,0.6,0.8,1,1s0.9,0.3,1.5,0.3c0.5,0,0.9-0.1,1.3-0.3c0.3-0.2,0.5-0.5,0.5-0.8c0-0.5-0.2-0.8-0.5-1
					c-0.3-0.2-0.9-0.4-1.7-0.6c-0.9-0.2-1.6-0.5-2.2-0.7c-0.6-0.2-1-0.6-1.3-1s-0.5-0.9-0.5-1.5c0-0.5,0.2-1,0.5-1.5
					s0.8-0.8,1.4-1.1c0.6-0.3,1.3-0.4,2.2-0.4c0.7,0,1.3,0.1,1.8,0.2c0.5,0.1,1,0.3,1.3,0.6c0.4,0.2,0.6,0.5,0.8,0.8
					s0.3,0.6,0.3,0.8c0,0.3-0.1,0.5-0.3,0.7s-0.5,0.3-0.9,0.3c-0.3,0-0.5-0.1-0.7-0.2c-0.2-0.2-0.4-0.4-0.6-0.7
					c-0.2-0.3-0.4-0.5-0.7-0.6c-0.3-0.2-0.6-0.2-1.1-0.2s-0.9,0.1-1.2,0.3c-0.3,0.2-0.5,0.4-0.5,0.7s0.1,0.5,0.3,0.7
					c0.2,0.2,0.5,0.3,0.9,0.4c0.4,0.1,0.9,0.3,1.6,0.4c0.8,0.2,1.5,0.4,2,0.7s0.9,0.6,1.2,1C-13.5,1074.8-13.4,1075.3-13.4,1075.8z"
					/>
				<path class="st4" d="M-10.7,1067.4c-0.4,0-0.7-0.1-0.9-0.3c-0.3-0.2-0.4-0.5-0.4-0.9s0.1-0.7,0.4-0.9c0.3-0.2,0.6-0.4,0.9-0.4
					c0.3,0,0.6,0.1,0.9,0.3c0.3,0.2,0.4,0.5,0.4,0.9c0,0.4-0.1,0.7-0.4,0.9C-10.1,1067.3-10.4,1067.4-10.7,1067.4z M-9.5,1070.1v7.5
					c0,0.5-0.1,0.9-0.4,1.2c-0.2,0.3-0.6,0.4-0.9,0.4s-0.7-0.1-0.9-0.4s-0.4-0.7-0.4-1.2v-7.4c0-0.5,0.1-0.9,0.4-1.2
					c0.2-0.3,0.5-0.4,0.9-0.4s0.7,0.1,0.9,0.4C-9.6,1069.3-9.5,1069.6-9.5,1070.1z"/>
				<path class="st4" d="M1.9,1070.6v7.5c0,0.9-0.1,1.6-0.3,2.2c-0.2,0.6-0.5,1.1-0.9,1.5s-0.9,0.7-1.6,0.9
					c-0.7,0.2-1.5,0.3-2.4,0.3s-1.7-0.1-2.4-0.4s-1.2-0.6-1.6-1c-0.4-0.4-0.6-0.8-0.6-1.2c0-0.3,0.1-0.6,0.3-0.8
					c0.2-0.2,0.5-0.3,0.8-0.3c0.4,0,0.7,0.2,1,0.5c0.1,0.2,0.3,0.3,0.4,0.5c0.1,0.2,0.3,0.3,0.5,0.4s0.4,0.2,0.7,0.3
					c0.3,0.1,0.5,0.1,0.9,0.1c0.7,0,1.2-0.1,1.6-0.3c0.4-0.2,0.6-0.4,0.8-0.8c0.1-0.3,0.2-0.7,0.3-1.1c0.1-0.4,0-1,0.1-1.8
					c-0.4,0.6-0.9,1-1.4,1.3c-0.5,0.3-1.1,0.4-1.9,0.4c-0.9,0-1.6-0.2-2.3-0.7c-0.6-0.4-1.1-1.1-1.5-1.9c-0.3-0.8-0.5-1.7-0.5-2.8
					c0-0.8,0.1-1.5,0.3-2.1c0.2-0.6,0.5-1.2,0.9-1.6c0.4-0.4,0.8-0.8,1.4-1c0.5-0.2,1.1-0.3,1.7-0.3c0.7,0,1.4,0.1,1.9,0.4
					c0.5,0.3,1,0.7,1.5,1.3v-0.4c0-0.4,0.1-0.8,0.3-1c0.2-0.2,0.5-0.4,0.9-0.4c0.5,0,0.8,0.2,1,0.5
					C1.8,1069.4,1.9,1069.8,1.9,1070.6z M-5.6,1073.8c0,1.1,0.2,1.8,0.7,2.4c0.5,0.5,1.1,0.8,1.8,0.8c0.4,0,0.8-0.1,1.2-0.3
					s0.7-0.6,0.9-1c0.2-0.5,0.4-1,0.4-1.7c0-1.1-0.2-1.9-0.7-2.5c-0.5-0.6-1.1-0.9-1.8-0.9s-1.3,0.3-1.8,0.8
					C-5.4,1071.9-5.6,1072.8-5.6,1073.8z"/>
				<path class="st4" d="M6,1070.1v0.3c0.5-0.6,1-1,1.5-1.3c0.5-0.3,1.2-0.4,1.9-0.4c0.7,0,1.3,0.1,1.8,0.4c0.5,0.3,0.9,0.7,1.2,1.3
					c0.2,0.3,0.3,0.7,0.3,1c0.1,0.4,0.1,0.8,0.1,1.4v4.8c0,0.5-0.1,0.9-0.4,1.2c-0.2,0.3-0.5,0.4-0.9,0.4s-0.7-0.1-0.9-0.4
					c-0.2-0.3-0.4-0.7-0.4-1.2v-4.3c0-0.9-0.1-1.5-0.4-2c-0.2-0.5-0.7-0.7-1.4-0.7c-0.5,0-0.9,0.1-1.3,0.4s-0.7,0.7-0.8,1.1
					c-0.1,0.4-0.2,1.1-0.2,2.2v3.2c0,0.5-0.1,0.9-0.4,1.2c-0.2,0.3-0.6,0.4-0.9,0.4c-0.4,0-0.7-0.1-0.9-0.4
					c-0.2-0.3-0.4-0.7-0.4-1.2v-7.5c0-0.5,0.1-0.9,0.3-1.1c0.2-0.2,0.5-0.4,0.9-0.4c0.2,0,0.4,0.1,0.6,0.2c0.2,0.1,0.3,0.3,0.4,0.5
					C6,1069.4,6,1069.8,6,1070.1z"/>
				<path class="st4" d="M21.8,1074.6h-5.1c0,0.6,0.1,1.1,0.4,1.6c0.2,0.5,0.5,0.8,0.9,1c0.4,0.2,0.8,0.3,1.3,0.3
					c0.3,0,0.6,0,0.9-0.1s0.5-0.2,0.7-0.3c0.2-0.2,0.5-0.3,0.7-0.5c0.2-0.2,0.5-0.4,0.8-0.7c0.1-0.1,0.3-0.2,0.6-0.2
					c0.3,0,0.5,0.1,0.6,0.2c0.2,0.1,0.2,0.4,0.2,0.6s-0.1,0.5-0.3,0.8c-0.2,0.3-0.5,0.6-0.8,0.9c-0.4,0.3-0.8,0.5-1.4,0.7
					s-1.2,0.3-1.9,0.3c-1.7,0-3-0.5-3.9-1.4c-0.9-0.9-1.4-2.2-1.4-3.9c0-0.8,0.1-1.5,0.3-2.1c0.2-0.7,0.6-1.2,1-1.7s1-0.8,1.6-1.1
					s1.3-0.4,2.1-0.4c1,0,1.9,0.2,2.6,0.6c0.7,0.4,1.3,1,1.6,1.7c0.4,0.7,0.5,1.4,0.5,2.1s-0.2,1.1-0.6,1.3
					C23,1074.4,22.5,1074.6,21.8,1074.6z M16.7,1073.1h4.7c-0.1-0.9-0.3-1.6-0.7-2c-0.4-0.4-1-0.7-1.6-0.7s-1.2,0.2-1.6,0.7
					S16.8,1072.1,16.7,1073.1z"/>
				<path class="st4" d="M32.4,1077.6v-0.3c-0.3,0.4-0.7,0.7-1,1s-0.7,0.4-1.1,0.6c-0.4,0.1-0.8,0.2-1.3,0.2c-0.6,0-1.2-0.1-1.7-0.4
					s-1-0.6-1.4-1.1s-0.7-1.1-0.9-1.7c-0.2-0.7-0.3-1.4-0.3-2.1c0-1.6,0.4-2.9,1.2-3.8c0.8-0.9,1.8-1.4,3.1-1.4
					c0.7,0,1.4,0.1,1.9,0.4c0.5,0.3,1,0.7,1.5,1.2v-3.8c0-0.5,0.1-0.9,0.3-1.2c0.2-0.3,0.5-0.4,0.9-0.4s0.7,0.1,0.9,0.4
					c0.2,0.3,0.3,0.6,0.3,1.1v11.4c0,0.5-0.1,0.9-0.3,1.1c-0.2,0.2-0.5,0.4-0.9,0.4s-0.6-0.1-0.9-0.4
					C32.5,1078.6,32.4,1078.1,32.4,1077.6z M27.3,1073.8c0,0.7,0.1,1.3,0.3,1.8c0.2,0.5,0.5,0.9,0.9,1.1c0.4,0.3,0.8,0.4,1.2,0.4
					c0.5,0,0.9-0.1,1.2-0.4c0.4-0.2,0.7-0.6,0.9-1.1c0.2-0.5,0.3-1.1,0.3-1.8s-0.1-1.3-0.3-1.8c-0.2-0.5-0.5-0.9-0.9-1.1
					c-0.4-0.3-0.8-0.4-1.3-0.4s-0.9,0.1-1.3,0.4s-0.7,0.7-0.9,1.2C27.4,1072.6,27.3,1073.1,27.3,1073.8z"/>
				<path class="st4" d="M43,1066.3v4c0.5-0.5,1-0.9,1.5-1.2c0.5-0.3,1.1-0.4,1.9-0.4c0.9,0,1.6,0.2,2.3,0.6c0.6,0.4,1.2,1,1.5,1.8
					c0.4,0.8,0.5,1.7,0.5,2.8c0,0.8-0.1,1.5-0.3,2.2c-0.2,0.7-0.5,1.2-0.9,1.7s-0.8,0.9-1.4,1.1c-0.5,0.3-1.1,0.4-1.8,0.4
					c-0.4,0-0.8,0-1.1-0.1c-0.4-0.1-0.7-0.2-0.9-0.4c-0.2-0.2-0.5-0.3-0.6-0.5c-0.2-0.2-0.4-0.4-0.7-0.7v0.3c0,0.5-0.1,0.9-0.4,1.1
					c-0.2,0.3-0.5,0.4-0.9,0.4s-0.7-0.1-0.9-0.4c-0.2-0.3-0.3-0.6-0.3-1.1v-11.3c0-0.5,0.1-0.9,0.3-1.2c0.2-0.3,0.5-0.4,0.9-0.4
					s0.7,0.1,0.9,0.4C42.9,1065.3,43,1065.8,43,1066.3z M43.1,1073.9c0,1,0.2,1.8,0.7,2.4c0.5,0.6,1.1,0.8,1.9,0.8
					c0.7,0,1.2-0.3,1.7-0.9c0.5-0.6,0.7-1.4,0.7-2.4c0-0.7-0.1-1.3-0.3-1.8c-0.2-0.5-0.5-0.9-0.8-1.1c-0.4-0.3-0.8-0.4-1.3-0.4
					s-0.9,0.1-1.3,0.4s-0.7,0.7-0.9,1.2C43.2,1072.6,43.1,1073.3,43.1,1073.9z"/>
				<path class="st4" d="M54,1079.4l0.2-0.6l-3.2-8c-0.2-0.5-0.3-0.8-0.3-1c0-0.2,0.1-0.4,0.2-0.6s0.3-0.3,0.5-0.5
					c0.2-0.1,0.4-0.2,0.6-0.2c0.4,0,0.7,0.1,0.8,0.4c0.2,0.2,0.4,0.6,0.5,1l2.2,6.4l2.1-5.9c0.2-0.5,0.3-0.9,0.4-1.1
					c0.1-0.3,0.3-0.5,0.4-0.5c0.1-0.1,0.4-0.1,0.6-0.1s0.4,0.1,0.6,0.2c0.2,0.1,0.3,0.2,0.4,0.4c0.1,0.2,0.1,0.4,0.1,0.6
					c0,0.1-0.1,0.3-0.1,0.5c-0.1,0.2-0.1,0.4-0.2,0.7l-3.4,8.9c-0.3,0.8-0.6,1.4-0.9,1.8c-0.3,0.4-0.6,0.8-1.1,1
					c-0.5,0.2-1.1,0.4-1.9,0.4s-1.3-0.1-1.7-0.2c-0.4-0.2-0.6-0.5-0.6-0.9c0-0.3,0.1-0.5,0.3-0.7c0.2-0.2,0.4-0.2,0.8-0.2
					c0.1,0,0.3,0,0.4,0.1c0.2,0,0.3,0.1,0.4,0.1c0.3,0,0.5,0,0.7-0.1s0.3-0.2,0.5-0.5C53.7,1080.3,53.8,1079.8,54,1079.4z"/>
			</g>
			<g>
				<path class="st4" d="M91.6,1068.8h0.6v-0.8c0-0.8,0.1-1.5,0.3-1.9c0.2-0.5,0.6-0.8,1-1c0.5-0.2,1.2-0.3,2-0.3
					c1.5,0,2.3,0.4,2.3,1.1c0,0.2-0.1,0.4-0.2,0.6c-0.2,0.2-0.3,0.3-0.6,0.3c-0.1,0-0.3,0-0.5-0.1c-0.2,0-0.5-0.1-0.6-0.1
					c-0.5,0-0.8,0.1-0.9,0.4c-0.1,0.3-0.2,0.7-0.2,1.2v0.6h0.6c1,0,1.5,0.3,1.5,0.9c0,0.4-0.1,0.7-0.4,0.8c-0.3,0.1-0.6,0.2-1.1,0.2
					h-0.6v6.9c0,0.5-0.1,0.9-0.4,1.2c-0.2,0.3-0.6,0.4-0.9,0.4c-0.4,0-0.7-0.1-0.9-0.4c-0.2-0.3-0.4-0.7-0.4-1.2v-6.9h-0.7
					c-0.4,0-0.7-0.1-0.9-0.3c-0.2-0.2-0.3-0.4-0.3-0.7C90.3,1069.1,90.7,1068.8,91.6,1068.8"/>
				<path class="st4" d="M100.1,1075.4v2.2c0,0.5-0.1,0.9-0.4,1.2c-0.2,0.3-0.6,0.4-0.9,0.4c-0.4,0-0.7-0.1-0.9-0.4
					c-0.2-0.3-0.4-0.7-0.4-1.2v-7.2c0-1.2,0.4-1.7,1.3-1.7c0.4,0,0.7,0.1,0.9,0.4c0.2,0.3,0.3,0.7,0.3,1.2c0.3-0.5,0.6-0.9,0.9-1.2
					s0.8-0.4,1.3-0.4s1.1,0.1,1.6,0.4c0.5,0.3,0.8,0.6,0.8,1.1c0,0.3-0.1,0.6-0.3,0.8c-0.2,0.2-0.5,0.3-0.7,0.3
					c-0.1,0-0.3-0.1-0.7-0.2c-0.4-0.1-0.7-0.2-1-0.2c-0.4,0-0.7,0.1-0.9,0.3c-0.2,0.2-0.4,0.5-0.6,0.9c-0.1,0.4-0.2,0.9-0.3,1.4
					C100.1,1073.9,100.1,1074.6,100.1,1075.4"/>
				<path class="st4" d="M112,1074.6h-5.1c0,0.6,0.1,1.1,0.4,1.6c0.2,0.4,0.5,0.8,0.9,1c0.4,0.2,0.8,0.3,1.3,0.3
					c0.3,0,0.6,0,0.8-0.1c0.3-0.1,0.5-0.2,0.7-0.3c0.2-0.2,0.5-0.3,0.7-0.5c0.2-0.2,0.5-0.4,0.8-0.7c0.1-0.1,0.3-0.2,0.6-0.2
					c0.3,0,0.5,0.1,0.6,0.2c0.2,0.1,0.2,0.4,0.2,0.6s-0.1,0.5-0.3,0.8c-0.2,0.3-0.5,0.6-0.8,0.9c-0.4,0.3-0.8,0.5-1.4,0.7
					s-1.2,0.3-1.9,0.3c-1.7,0-3-0.5-3.9-1.4c-0.9-1-1.4-2.2-1.4-3.9c0-0.8,0.1-1.5,0.3-2.1c0.2-0.7,0.6-1.2,1-1.7s1-0.8,1.6-1.1
					c0.6-0.2,1.3-0.4,2.1-0.4c1,0,1.9,0.2,2.6,0.6c0.7,0.4,1.3,1,1.6,1.7c0.4,0.7,0.5,1.4,0.5,2.1c0,0.6-0.2,1.1-0.6,1.3
					C113.2,1074.4,112.7,1074.6,112,1074.6 M106.9,1073.1h4.7c-0.1-0.9-0.3-1.5-0.7-2c-0.4-0.4-1-0.7-1.6-0.7s-1.2,0.2-1.6,0.7
					C107.2,1071.6,107,1072.1,106.9,1073.1"/>
				<path class="st4" d="M122.8,1074.6h-5.1c0,0.6,0.1,1.1,0.4,1.6c0.2,0.4,0.5,0.8,0.9,1c0.4,0.2,0.8,0.3,1.3,0.3
					c0.3,0,0.6,0,0.8-0.1c0.3-0.1,0.5-0.2,0.8-0.3c0.2-0.2,0.5-0.3,0.7-0.5c0.2-0.2,0.5-0.4,0.8-0.7c0.1-0.1,0.3-0.2,0.6-0.2
					c0.3,0,0.5,0.1,0.7,0.2s0.2,0.4,0.2,0.6s-0.1,0.5-0.3,0.8c-0.2,0.3-0.5,0.6-0.8,0.9c-0.4,0.3-0.8,0.5-1.4,0.7s-1.2,0.3-1.9,0.3
					c-1.7,0-3-0.5-3.9-1.4c-0.9-1-1.4-2.2-1.4-3.9c0-0.8,0.1-1.5,0.3-2.1c0.2-0.7,0.6-1.2,1-1.7s1-0.8,1.6-1.1
					c0.6-0.2,1.4-0.4,2.1-0.4c1,0,1.9,0.2,2.6,0.6c0.7,0.4,1.3,1,1.6,1.7c0.4,0.7,0.5,1.4,0.5,2.1c0,0.6-0.2,1.1-0.6,1.3
					C124,1074.4,123.4,1074.6,122.8,1074.6 M117.7,1073.1h4.7c-0.1-0.9-0.3-1.5-0.7-2c-0.4-0.4-1-0.7-1.6-0.7s-1.2,0.2-1.6,0.7
					C118,1071.6,117.8,1072.1,117.7,1073.1"/>
				<path class="st4" d="M128.4,1070.1v0.3c0.5-0.6,1-1,1.5-1.3c0.5-0.3,1.1-0.4,1.8-0.4c0.8,0,1.5,0.2,2.2,0.6
					c0.7,0.4,1.2,1,1.6,1.8s0.6,1.7,0.6,2.8c0,0.8-0.1,1.5-0.3,2.2c-0.2,0.7-0.5,1.2-0.9,1.7s-0.9,0.8-1.4,1
					c-0.5,0.2-1.1,0.4-1.7,0.4c-0.7,0-1.4-0.1-1.9-0.4s-1-0.7-1.4-1.3v3.9c0,1.1-0.4,1.7-1.2,1.7c-0.5,0-0.8-0.1-1-0.4
					c-0.2-0.3-0.2-0.7-0.2-1.3v-11.2c0-0.5,0.1-0.9,0.3-1.1c0.2-0.2,0.5-0.4,0.9-0.4s0.7,0.1,0.9,0.4
					C128.3,1069.3,128.4,1069.6,128.4,1070.1 M133.5,1073.8c0-0.7-0.1-1.3-0.3-1.8c-0.2-0.5-0.5-0.9-0.9-1.1
					c-0.4-0.3-0.8-0.4-1.2-0.4c-0.7,0-1.3,0.3-1.8,0.8c-0.5,0.6-0.7,1.4-0.7,2.5c0,1,0.2,1.8,0.7,2.4c0.5,0.6,1.1,0.9,1.8,0.9
					c0.4,0,0.8-0.1,1.2-0.4c0.4-0.3,0.7-0.6,0.9-1.1C133.4,1075.1,133.5,1074.6,133.5,1073.8"/>
				<path class="st4" d="M138.7,1067.3c-0.4,0-0.7-0.1-0.9-0.3c-0.3-0.2-0.4-0.5-0.4-0.9c0-0.4,0.1-0.7,0.4-0.9
					c0.3-0.2,0.6-0.4,0.9-0.4s0.6,0.1,0.9,0.3s0.4,0.5,0.4,0.9s-0.1,0.7-0.4,0.9C139.4,1067.3,139.1,1067.3,138.7,1067.3
					 M140,1070.1v7.5c0,0.5-0.1,0.9-0.4,1.2s-0.6,0.4-0.9,0.4c-0.4,0-0.7-0.1-0.9-0.4c-0.2-0.3-0.4-0.7-0.4-1.2v-7.4
					c0-0.5,0.1-0.9,0.4-1.2c0.2-0.3,0.5-0.4,0.9-0.4s0.7,0.1,0.9,0.4C139.9,1069.3,140,1069.6,140,1070.1"/>
				<path class="st4" d="M148.4,1077.9l-2.3-3.8l-1.4,1.3v2.1c0,0.5-0.1,0.9-0.4,1.1c-0.3,0.3-0.6,0.4-0.9,0.4
					c-0.4,0-0.7-0.1-0.9-0.4c-0.2-0.3-0.3-0.7-0.3-1.2v-10.9c0-0.6,0.1-1,0.3-1.3c0.2-0.3,0.5-0.5,1-0.5c0.4,0,0.7,0.1,0.9,0.4
					c0.2,0.3,0.4,0.7,0.4,1.2v6.3l2.9-3.1c0.4-0.4,0.6-0.6,0.8-0.8c0.2-0.1,0.4-0.2,0.7-0.2c0.3,0,0.6,0.1,0.8,0.3
					c0.2,0.2,0.3,0.5,0.3,0.8c0,0.4-0.4,0.9-1.1,1.5l-1.4,1.3l2.7,4.2c0.2,0.3,0.3,0.5,0.4,0.7c0.1,0.2,0.1,0.3,0.1,0.5
					c0,0.4-0.1,0.7-0.3,1c-0.2,0.2-0.5,0.4-0.9,0.4c-0.3,0-0.6-0.1-0.7-0.3C148.9,1078.8,148.7,1078.4,148.4,1077.9"/>
				<path class="st4" d="M154,1079.1c-0.4,0-0.7-0.1-1-0.4c-0.3-0.2-0.4-0.6-0.4-1.1c0-0.4,0.1-0.7,0.4-1c0.3-0.3,0.6-0.4,1-0.4
					s0.7,0.1,1,0.4s0.4,0.6,0.4,1c0,0.5-0.1,0.8-0.4,1.1S154.4,1079.1,154,1079.1"/>
				<path class="st4" d="M166.9,1075.9c0,0.3-0.1,0.7-0.3,1c-0.2,0.4-0.5,0.7-0.9,1c-0.4,0.3-0.9,0.6-1.5,0.8s-1.3,0.3-2,0.3
					c-1.6,0-2.9-0.5-3.8-1.4c-0.9-0.9-1.3-2.2-1.3-3.8c0-1.1,0.2-2,0.6-2.8c0.4-0.8,1-1.4,1.8-1.9c0.8-0.4,1.7-0.7,2.8-0.7
					c0.7,0,1.3,0.1,1.9,0.3c0.6,0.2,1,0.5,1.4,0.8s0.7,0.6,0.9,1c0.2,0.4,0.3,0.7,0.3,1s-0.1,0.6-0.3,0.8c-0.2,0.2-0.5,0.3-0.8,0.3
					c-0.2,0-0.4-0.1-0.5-0.2c-0.1-0.1-0.3-0.3-0.5-0.5c-0.3-0.5-0.6-0.8-1-1.1c-0.3-0.2-0.8-0.4-1.3-0.4c-0.8,0-1.4,0.3-1.9,0.9
					c-0.5,0.6-0.7,1.4-0.7,2.5c0,0.5,0.1,0.9,0.2,1.3c0.1,0.4,0.3,0.8,0.5,1c0.2,0.3,0.5,0.5,0.8,0.7c0.3,0.2,0.7,0.2,1.1,0.2
					c0.5,0,1-0.1,1.3-0.4c0.4-0.2,0.7-0.6,1-1.1c0.2-0.3,0.3-0.5,0.5-0.7c0.2-0.2,0.4-0.2,0.7-0.2c0.3,0,0.6,0.1,0.8,0.4
					C166.8,1075.4,166.9,1075.6,166.9,1075.9"/>
				<path class="st4" d="M178.1,1073.8c0,0.8-0.1,1.5-0.4,2.1c-0.2,0.7-0.6,1.2-1,1.7c-0.5,0.5-1,0.8-1.6,1.1
					c-0.6,0.2-1.3,0.4-2.1,0.4c-0.8,0-1.5-0.1-2.1-0.4c-0.6-0.2-1.2-0.6-1.6-1.1c-0.5-0.5-0.8-1-1.1-1.7c-0.2-0.6-0.4-1.4-0.4-2.1
					c0-0.8,0.1-1.5,0.4-2.2c0.2-0.7,0.6-1.2,1-1.7c0.5-0.5,1-0.8,1.6-1.1c0.6-0.2,1.3-0.4,2.1-0.4c0.8,0,1.5,0.1,2.1,0.4
					c0.6,0.3,1.2,0.6,1.6,1.1c0.5,0.5,0.8,1,1,1.7C178,1072.3,178.1,1073.1,178.1,1073.8 M175.5,1073.8c0-1.1-0.2-1.9-0.7-2.5
					s-1.1-0.9-1.9-0.9c-0.5,0-1,0.1-1.3,0.4c-0.4,0.3-0.7,0.6-0.9,1.2c-0.2,0.5-0.3,1.1-0.3,1.8s0.1,1.3,0.3,1.8
					c0.2,0.5,0.5,0.9,0.9,1.2s0.8,0.4,1.4,0.4c0.8,0,1.4-0.3,1.9-0.9C175.3,1075.8,175.5,1074.9,175.5,1073.8"/>
				<path class="st4" d="M188,1074.1v3.4c0,0.5-0.1,1-0.4,1.2c-0.3,0.3-0.6,0.4-1,0.4s-0.7-0.1-1-0.4c-0.2-0.3-0.4-0.7-0.4-1.2v-4.1
					c0-0.7,0-1.2-0.1-1.5c0-0.4-0.2-0.7-0.4-0.9c-0.2-0.2-0.5-0.4-0.9-0.4c-0.9,0-1.4,0.3-1.7,0.9c-0.3,0.6-0.4,1.4-0.4,2.5v3.5
					c0,0.5-0.1,0.9-0.4,1.2c-0.2,0.3-0.6,0.4-1,0.4s-0.7-0.1-1-0.4c-0.3-0.3-0.4-0.7-0.4-1.2v-7.4c0-0.5,0.1-0.9,0.3-1.1
					c0.2-0.3,0.5-0.4,0.9-0.4s0.7,0.1,0.9,0.4c0.2,0.2,0.4,0.6,0.4,1v0.2c0.5-0.5,0.9-0.9,1.4-1.2c0.5-0.3,1.1-0.4,1.7-0.4
					c0.7,0,1.2,0.1,1.7,0.4s0.9,0.7,1.2,1.2c0.4-0.5,0.9-0.9,1.4-1.2c0.5-0.3,1.1-0.4,1.7-0.4c0.7,0,1.3,0.1,1.8,0.4
					s0.9,0.7,1.1,1.2s0.3,1.2,0.3,2.2v5.1c0,0.5-0.1,1-0.4,1.2c-0.2,0.3-0.6,0.4-1,0.4s-0.7-0.1-1-0.4c-0.3-0.3-0.4-0.7-0.4-1.2
					v-4.4c0-0.6,0-1-0.1-1.3c0-0.3-0.2-0.6-0.4-0.8c-0.2-0.2-0.5-0.3-1-0.3c-0.3,0-0.7,0.1-1,0.3c-0.3,0.2-0.5,0.5-0.7,0.8
					C188.1,1072.1,188,1072.9,188,1074.1"/>
			</g>
			<g>
				<path class="st4" d="M67.3,1073.3L67.3,1073.3L67.3,1073.3z"/>
				<path class="st4" d="M67.4,1074.1L67.4,1074.1c0-0.2-0.1-0.5-0.1-0.7C67.3,1073.6,67.4,1073.8,67.4,1074.1z"/>
				<path class="st4" d="M68.3,1076.4L68.3,1076.4L68.3,1076.4z"/>
				<path class="st4" d="M68.2,1076.3c0,0,0-0.1-0.1-0.1C68.2,1076.3,68.2,1076.3,68.2,1076.3z"/>
				<path class="st4" d="M67.7,1075.1c0.1,0.4,0.3,0.8,0.5,1.2C67.9,1075.8,67.8,1075.3,67.7,1075.1L67.7,1075.1z"/>
				<path class="st4" d="M77.3,1063.3c0.5,0,0.9,0,1.3,0.1l0.1-0.8c0,0-1.2-0.4-2.7-0.2l-0.1-0.4c0.5-0.1,0.8-0.5,0.8-1
					c0-0.6-0.5-1.1-1.1-1.1s-1.1,0.5-1.1,1.1c0,0.5,0.4,0.9,0.8,1l0.1,0.5c-1.6,0.2-2.9,0.9-2.9,0.9l0.2,0.7c1-0.3,1.8-0.5,2.6-0.6
					C76.3,1063.3,76.9,1063.3,77.3,1063.3z"/>
				<path class="st4" d="M68.3,1067.1L68.3,1067.1c0-0.1,0.1-0.1,0.1-0.2l-0.3-0.2l-0.5-0.4c0,0-0.8,0.7-1.4,2l-0.1-0.1
					c-0.2-0.2-0.4-0.3-0.8-0.3l0,0c-0.2,0-0.3-0.1-0.4-0.1c0.1-0.1,0.1-0.3,0.1-0.4c0-0.4-0.3-0.7-0.7-0.7c-0.4,0-0.7,0.3-0.7,0.7
					s0.3,0.7,0.7,0.7c0.1,0,0.1,0,0.2,0c0.2,0.2,0.4,0.3,0.8,0.3c0.2,0,0.3,0,0.4,0.2c0.1,0.1,0.1,0.3,0.2,0.4l0,0
					c-0.4,1.2-0.3,2.7-0.3,2.7h1.1c0-0.5,0.1-1.5,0.4-2.2C67.6,1068.1,68.2,1067.3,68.3,1067.1z"/>
				<path class="st4" d="M86.5,1064.1c-0.4,0-0.7,0.3-0.7,0.7c0,0.1,0,0.1,0,0.2c-0.2,0.2-0.3,0.4-0.3,0.8c0,0.2,0,0.3-0.2,0.4
					c-0.1,0.1-0.2,0.1-0.3,0.1c-0.8-1.1-1.8-1.8-1.8-1.8l-0.8,0.8c0.6,0.5,1.2,1.2,1.7,2c0.4,0.6,0.8,1.3,1.1,2l1-0.5
					c0,0-0.5-1.2-1.1-2.2c0.1,0,0.2-0.1,0.3-0.2c0.2-0.2,0.3-0.4,0.3-0.8c0-0.2,0.1-0.3,0.1-0.4c0.1,0.1,0.3,0.1,0.4,0.1
					c0.4,0,0.7-0.3,0.7-0.7C87.2,1064.4,86.9,1064.1,86.5,1064.1z"/>
				<path class="st4" d="M83.9,1073.4c-1.4,0.7-3.7,1.6-6.8,2c-1.2,0.2-2.4,0.2-3.4,0.2c-1.4,0-2.6-0.1-3.6-0.2
					c-1.1-0.1-1.9-0.3-2.4-0.4c0.1,0.4,0.3,0.8,0.5,1.2l0,0c0,0,0,0.1,0.1,0.1c0,0,0,0.1,0.1,0.1l0,0c0.3,0.6,0.7,1.1,1.1,1.5
					c1.4,1.6,2.9,1.8,2.9,1.8l0,0l0,0c0,0,1.3,0.4,3.3,0.4c1.9,0,3.9-0.4,5.7-1.2c1.3-0.7,2.6-1.7,3.3-2.7c0.5-0.7,0.8-1.5,1-2.3
					c0.1-0.4,0.2-1.1,0.1-1.8C85.4,1072.6,84.7,1072.9,83.9,1073.4z"/>
				<path class="st4" d="M68.7,1067.6c0,0.1-0.7,0.9-1.1,2.3c-0.4,1-0.3,2.4-0.3,2.5l0,0c0,0.3,0,0.7,0.1,1l0,0v0.1
					c0,0.2,0.1,0.5,0.1,0.7c0.7,0.2,4.9,1.2,9.5,0.5c2.9-0.4,5.1-1.3,6.5-1.9c1.1-0.5,1.8-1,2.1-1.2c-0.3-1-1-2.6-1.7-3.6
					c-2-2.9-4.2-3.6-5.3-3.8c-0.4-0.1-0.8-0.1-1.2-0.1c-0.4,0-1,0-1.7,0.1c-0.7,0.1-1.6,0.3-2.5,0.6c-1.3,0.5-2.6,1.2-3.5,2l0,0
					C69.4,1066.8,69.1,1067.1,68.7,1067.6z M81,1066.8c1,0,1.7,0.8,1.7,1.7c0,1-0.8,1.7-1.7,1.7c-1,0-1.7-0.8-1.7-1.7
					C79.2,1067.6,80,1066.8,81,1066.8z M72.8,1066.8c1.6,0,2.8,1.3,2.8,2.8c0,1.6-1.3,2.8-2.8,2.8c-1.6,0-2.8-1.3-2.8-2.8
					C69.9,1068.1,71.2,1066.8,72.8,1066.8z"/>
			</g>
		</g>
	</g>
	<path class="st7" d="M-10.5,359.3v-9.2c2.9,1.5,5.9,3.1,8.8,4.6C-4.7,356.2-7.6,357.8-10.5,359.3L-10.5,359.3z"/>
	<g>
		<path class="st8" d="M29.1,364.5h-9.6c-2.8,0-5-2.2-5-5v-9.6c0-2.8,2.2-5,5-5h9.6c2.8,0,5,2.2,5,5v9.6
			C34.1,362.3,31.9,364.5,29.1,364.5L29.1,364.5z M19.6,346c-2.1,0-3.9,1.7-3.9,3.9v9.6c0,2.1,1.7,3.9,3.9,3.9h9.6
			c2.1,0,3.9-1.7,3.9-3.9v-9.6c0-2.1-1.7-3.9-3.9-3.9L19.6,346L19.6,346z M19.6,346"/>
		<path class="st8" d="M33.6,352.3h-6.9c-0.3,0-0.6-0.3-0.6-0.6c0-0.3,0.2-0.6,0.6-0.6h6.9c0.3,0,0.6,0.3,0.6,0.6
			C34.1,352,33.9,352.3,33.6,352.3L33.6,352.3z M33.6,352.3"/>
		<path class="st8" d="M21.9,352.3h-6.8c-0.3,0-0.6-0.3-0.6-0.6c0-0.3,0.2-0.6,0.6-0.6h6.8c0.3,0,0.6,0.3,0.6,0.6
			C22.4,352,22.2,352.3,21.9,352.3L21.9,352.3z M21.9,352.3"/>
		<path class="st8" d="M24.3,359.1c-2.4,0-4.4-2-4.4-4.4c0-2.4,2-4.4,4.4-4.4c2.4,0,4.4,2,4.4,4.4C28.7,357.1,26.8,359.1,24.3,359.1
			L24.3,359.1z M24.3,351.5c-1.8,0-3.2,1.5-3.2,3.3c0,1.8,1.5,3.2,3.2,3.2c1.8,0,3.2-1.5,3.2-3.2C27.6,352.9,26.1,351.5,24.3,351.5
			L24.3,351.5z M24.3,351.5"/>
		<path class="st8" d="M30.7,350.8h-2.5c-0.3,0-0.6-0.2-0.6-0.6v-2.5c0-0.3,0.3-0.6,0.6-0.6h2.5c0.3,0,0.6,0.2,0.6,0.6v2.5
			C31.2,350.6,31,350.8,30.7,350.8L30.7,350.8z M28.7,349.7h1.4v-1.4h-1.4V349.7z M28.7,349.7"/>
	</g>
	<g>
		<path class="st9" d="M-57.4,372.4c-1.1,0.5-2.2,0.8-3.4,0.9c1.2-0.7,2.2-1.9,2.6-3.3c-1.2,0.7-2.4,1.2-3.8,1.5
			c-1.1-1.2-2.6-1.9-4.4-1.9c-3.3,0-6,2.7-6,6c0,0.5,0.1,0.9,0.2,1.4c-5-0.3-9.4-2.6-12.3-6.3c-0.5,0.9-0.8,1.9-0.8,3
			c0,2.1,1.1,3.9,2.7,5c-1,0-1.9-0.3-2.7-0.7v0.1c0,2.9,2.1,5.3,4.8,5.9c-0.5,0.1-1,0.2-1.6,0.2c-0.4,0-0.8,0-1.1-0.1
			c0.8,2.4,3,4.1,5.6,4.2c-2,1.6-4.6,2.6-7.4,2.6c-0.5,0-1,0-1.4-0.1c2.7,1.7,5.8,2.7,9.2,2.7c11,0,17-9.1,17-17l0-0.8
			C-59.3,374.6-58.2,373.6-57.4,372.4L-57.4,372.4z M-57.4,372.4"/>
	</g>
	<path class="st9" d="M-33.5,369.1l-3.2,0c-3.6,0-5.9,2.4-5.9,6v2.8h-3.2c-0.3,0-0.5,0.2-0.5,0.5v4c0,0.3,0.2,0.5,0.5,0.5h3.2V393
		c0,0.3,0.2,0.5,0.5,0.5h4.2c0.3,0,0.5-0.2,0.5-0.5v-10.1h3.7c0.3,0,0.5-0.2,0.5-0.5l0-4c0-0.1-0.1-0.3-0.1-0.4
		c-0.1-0.1-0.2-0.1-0.4-0.1h-3.7v-2.3c0-1.1,0.3-1.7,1.7-1.7l2.1,0c0.3,0,0.5-0.2,0.5-0.5v-3.7C-33,369.3-33.2,369.1-33.5,369.1
		L-33.5,369.1z M-33.5,369.1"/>
	<path class="st10" d="M6.3,374.8c-0.3-1.5-1.5-2.6-3-2.7c-3.4-0.4-6.9-0.4-10.4-0.4c-3.5,0-7,0-10.4,0.4c-1.5,0.2-2.7,1.3-3,2.7
		c-0.5,2.1-0.5,4.4-0.5,6.6c0,2.2,0,4.5,0.5,6.6c0.3,1.5,1.5,2.6,3,2.7c3.4,0.4,6.9,0.4,10.4,0.4c3.5,0,7,0,10.4-0.4
		c1.5-0.2,2.7-1.3,3-2.7c0.5-2.1,0.5-4.4,0.5-6.6C6.8,379.2,6.8,376.9,6.3,374.8L6.3,374.8z M-10.7,385.6"/>
	<path class="st11" d="M-10.5,385.9v-9.2c2.9,1.5,5.9,3.1,8.8,4.6C-4.7,382.9-7.6,384.4-10.5,385.9L-10.5,385.9z"/>
	<g>
		<path class="st12" d="M29.1,391.2h-9.6c-2.8,0-5-2.2-5-5v-9.6c0-2.8,2.2-5,5-5h9.6c2.8,0,5,2.2,5,5v9.6
			C34.1,388.9,31.9,391.2,29.1,391.2L29.1,391.2z M19.6,372.7"/>
		<path class="st12" d="M33.6,378.9h-6.9c-0.3,0-0.6-0.3-0.6-0.6s0.2-0.6,0.6-0.6h6.9c0.3,0,0.6,0.3,0.6,0.6
			C34.1,378.7,33.9,378.9,33.6,378.9L33.6,378.9z M33.6,378.9"/>
		<path class="st12" d="M21.9,378.9h-6.8c-0.3,0-0.6-0.3-0.6-0.6s0.2-0.6,0.6-0.6h6.8c0.3,0,0.6,0.3,0.6,0.6S22.2,378.9,21.9,378.9
			L21.9,378.9z M21.9,378.9"/>
		<path class="st12" d="M24.3,385.7c-2.4,0-4.4-2-4.4-4.4c0-2.4,2-4.4,4.4-4.4c2.4,0,4.4,2,4.4,4.4
			C28.7,383.8,26.8,385.7,24.3,385.7L24.3,385.7z M24.3,378.1c-1.8,0-3.2,1.5-3.2,3.3c0,1.8,1.5,3.2,3.2,3.2c1.8,0,3.2-1.5,3.2-3.2
			C27.6,379.6,26.1,378.1,24.3,378.1L24.3,378.1z M24.3,378.1"/>
		<path class="st12" d="M30.7,377.5h-2.5c-0.3,0-0.6-0.2-0.6-0.6v-2.5c0-0.3,0.3-0.6,0.6-0.6h2.5c0.3,0,0.6,0.2,0.6,0.6v2.5
			C31.2,377.2,31,377.5,30.7,377.5L30.7,377.5z M28.7,376.4h1.4V375h-1.4V376.4z M28.7,376.4"/>
	</g>
	<g>
		<path class="st13" d="M29.1,391.2h-9.6c-2.8,0-5-2.2-5-5v-9.6c0-2.8,2.2-5,5-5h9.6c2.8,0,5,2.2,5,5v9.6
			C34.1,388.9,31.9,391.2,29.1,391.2L29.1,391.2z M19.6,372.7c-2.1,0-3.9,1.7-3.9,3.9v9.6c0,2.1,1.7,3.9,3.9,3.9h9.6
			c2.1,0,3.9-1.7,3.9-3.9v-9.6c0-2.1-1.7-3.9-3.9-3.9L19.6,372.7L19.6,372.7z M19.6,372.7"/>
		<path class="st13" d="M33.6,378.9h-6.9c-0.3,0-0.6-0.3-0.6-0.6s0.2-0.6,0.6-0.6h6.9c0.3,0,0.6,0.3,0.6,0.6
			C34.1,378.7,33.9,378.9,33.6,378.9L33.6,378.9z M33.6,378.9"/>
		<path class="st13" d="M21.9,378.9h-6.8c-0.3,0-0.6-0.3-0.6-0.6s0.2-0.6,0.6-0.6h6.8c0.3,0,0.6,0.3,0.6,0.6S22.2,378.9,21.9,378.9
			L21.9,378.9z M21.9,378.9"/>
		<path class="st13" d="M24.3,385.7c-2.4,0-4.4-2-4.4-4.4c0-2.4,2-4.4,4.4-4.4c2.4,0,4.4,2,4.4,4.4
			C28.7,383.8,26.8,385.7,24.3,385.7L24.3,385.7z M24.3,378.1c-1.8,0-3.2,1.5-3.2,3.3c0,1.8,1.5,3.2,3.2,3.2c1.8,0,3.2-1.5,3.2-3.2
			C27.6,379.6,26.1,378.1,24.3,378.1L24.3,378.1z M24.3,378.1"/>
		<path class="st13" d="M30.7,377.5h-2.5c-0.3,0-0.6-0.2-0.6-0.6v-2.5c0-0.3,0.3-0.6,0.6-0.6h2.5c0.3,0,0.6,0.2,0.6,0.6v2.5
			C31.2,377.2,31,377.5,30.7,377.5L30.7,377.5z M28.7,376.4h1.4V375h-1.4V376.4z M28.7,376.4"/>
	</g>
</g>
</svg>
